<svg width="1348" height="342" viewBox="0 0 1348 342" fill="none" xmlns="http://www.w3.org/2000/svg">
<path d="M3.5 342L0.613281 337H6.38672L3.5 342ZM436.5 342L433.613 337H439.387L436.5 342ZM1344.5 342L1341.61 337H1347.39L1344.5 342ZM890.5 340.11L887.613 335.11H893.387L890.5 340.11ZM4 335.079H3V333.103H4V335.079ZM437 335.079H436V333.103H437V335.079ZM1345 335.079H1344V333.103H1345V335.079ZM891 333.189H890V331.213H891V333.189ZM4 331.125H3V329.147H4V331.125ZM437 331.125H436V329.147H437V331.125ZM1345 331.125H1344V329.147H1345V331.125ZM891 329.235H890V327.258H891V329.235ZM4 327.17H3V325.193H4V327.17ZM437 327.17H436V325.193H437V327.17ZM1345 327.17H1344V325.193H1345V327.17ZM891 325.28H890V323.304H891V325.28ZM4 323.216H3V321.238H4V323.216ZM437 323.216H436V321.238H437V323.216ZM1345 323.216H1344V321.238H1345V323.216ZM891 321.326H890V319.349H891V321.326ZM4 319.262H3V317.284H4V319.262ZM437 319.262H436V317.284H437V319.262ZM1345 319.262H1344V317.284H1345V319.262ZM891 317.372H890V315.395H891V317.372ZM4 315.307H3V313.329H4V315.307ZM437 315.307H436V313.329H437V315.307ZM1345 315.307H1344V313.329H1345V315.307ZM891 313.417H890V311.439H891V313.417ZM4 311.353H3V309.375H4V311.353ZM437 311.353H436V309.375H437V311.353ZM1345 311.353H1344V309.375H1345V311.353ZM891 309.463H890V307.485H891V309.463ZM4 307.397H3V305.42H4V307.397ZM437 307.397H436V305.42H437V307.397ZM1345 307.397H1344V305.42H1345V307.397ZM891 305.508H890V303.53H891V305.508ZM4 303.443H3V301.466H4V303.443ZM437 303.443H436V301.466H437V303.443ZM1345 303.443H1344V301.466H1345V303.443ZM891 301.554H890V299.576H891V301.554ZM4 299.488H3V297.511H4V299.488ZM437 299.488H436V297.511H437V299.488ZM1345 299.488H1344V297.511H1345V299.488ZM891 297.599H890V295.621H891V297.599ZM4 295.534H3V293.557H4V295.534ZM437 295.534H436V293.557H437V295.534ZM1345 295.534H1344V293.557H1345V295.534ZM891 293.645H890V291.667H891V293.645ZM4 291.579H3V289.603H4V291.579ZM437 291.579H436V289.603H437V291.579ZM1345 291.579H1344V289.603H1345V291.579ZM891 289.689H890V287.713H891V289.689ZM4 287.625H3V285.647H4V287.625ZM437 287.625H436V285.647H437V287.625ZM1345 287.625H1344V285.647H1345V287.625ZM891 285.735H890V283.758H891V285.735ZM4 283.67H3V281.693H4V283.67ZM437 283.67H436V281.693H437V283.67ZM1345 283.67H1344V281.693H1345V283.67ZM891 281.78H890V279.804H891V281.78ZM4 279.716H3V277.738H4V279.716ZM437 279.716H436V277.738H437V279.716ZM1345 279.716H1344V277.738H1345V279.716ZM891 277.826H890V275.849H891V277.826ZM4 275.761H3V273.784H4V275.761ZM437 275.761H436V273.784H437V275.761ZM1345 275.761H1344V273.784H1345V275.761ZM891 273.871H890V271.895H891V273.871ZM4 271.807H3V269.829H4V271.807ZM437 271.807H436V269.829H437V271.807ZM1345 271.807H1344V269.829H1345V271.807ZM891 269.917H890V267.939H891V269.917ZM4 267.852H3V265.875H4V267.852ZM437 267.852H436V265.875H437V267.852ZM1345 267.852H1344V265.875H1345V267.852ZM891 265.962H890V263.985H891V265.962ZM4 263.897H3V261.92H4V263.897ZM437 263.897H436V261.92H437V263.897ZM1345 263.897H1344V261.92H1345V263.897ZM891 262.008H890V260.03H891V262.008ZM4 259.943H3V257.966H4V259.943ZM437 259.943H436V257.966H437V259.943ZM1345 259.943H1344V257.966H1345V259.943ZM891 258.054H890V256.076H891V258.054ZM4 255.988H3V254.011H4V255.988ZM437 255.988H436V254.011H437V255.988ZM1345 255.988H1344V254.011H1345V255.988ZM891 254.099H890V252.121H891V254.099ZM4 252.034H3V250.057H4V252.034ZM437 252.034H436V250.057H437V252.034ZM1345 252.034H1344V250.057H1345V252.034ZM891 250.145H890V248.167H891V250.145ZM4 248.079H3V246.102H4V248.079ZM437 248.079H436V246.102H437V248.079ZM1345 248.079H1344V246.102H1345V248.079ZM891 246.189H890V244.212H891V246.189ZM4 244.125H3V242.147H4V244.125ZM437 244.125H436V242.147H437V244.125ZM1345 244.125H1344V242.147H1345V244.125ZM891 242.235H890V240.258H891V242.235ZM4 240.17H3V238.192H4V240.17ZM437 240.17H436V238.192H437V240.17ZM1345 240.17H1344V238.192H1345V240.17ZM891 238.28H890V236.303H891V238.28ZM4 236.216H3V234.238H4V236.216ZM437 236.216H436V234.238H437V236.216ZM1345 236.216H1344V234.238H1345V236.216ZM891 234.326H890V232.349H891V234.326ZM4 232.261H3V230.284H4V232.261ZM437 232.261H436V230.284H437V232.261ZM1345 232.261H1344V230.284H1345V232.261ZM891 230.371H890V228.395H891V230.371ZM4 228.307H3V226.329H4V228.307ZM437 228.307H436V226.329H437V228.307ZM1345 228.307H1344V226.329H1345V228.307ZM891 226.417H890V224.439H891V226.417ZM4 224.352H3V222.375H4V224.352ZM437 224.352H436V222.375H437V224.352ZM1345 224.352H1344V222.375H1345V224.352ZM891 222.462H890V220.485H891V222.462ZM4 220.397H3V218.42H4V220.397ZM437 220.397H436V218.42H437V220.397ZM1345 220.397H1344V218.42H1345V220.397ZM891 218.508H890V216.53H891V218.508ZM4 216.442H3V214.466H4V216.442ZM437 216.442H436V214.466H437V216.442ZM1345 216.442H1344V214.466H1345V216.442ZM891 214.553H890V212.576H891V214.553ZM4 212.488H3V210.511H4V212.488ZM437 212.488H436V210.511H437V212.488ZM1345 212.488H1344V210.511H1345V212.488ZM891 210.599H890V208.621H891V210.599ZM4 208.533H3V206.557H4V208.533ZM437 208.533H436V206.557H437V208.533ZM1345 208.533H1344V206.557H1345V208.533ZM891 206.644H890V204.667H891V206.644ZM4 204.579H3V202.602H4V204.579ZM437 204.579H436V202.602H437V204.579ZM1345 204.579H1344V202.602H1345V204.579ZM891 202.689H890V200.712H891V202.689ZM4 200.625H3V198.647H4V200.625ZM437 200.625H436V198.647H437V200.625ZM1345 200.625H1344V198.647H1345V200.625ZM891 198.735H890V196.758H891V198.735ZM4 196.67H3V194.692H4V196.67ZM437 196.67H436V194.692H437V196.67ZM1345 196.67H1344V194.692H1345V196.67ZM891 194.78H890V192.803H891V194.78ZM4 192.716H3V190.738H4V192.716ZM437 192.716H436V190.738H437V192.716ZM1345 192.716H1344V190.738H1345V192.716ZM891 190.826H890V188.849H891V190.826ZM4 188.761H3V186.783H4V188.761ZM437 188.761H436V186.783H437V188.761ZM1345 188.761H1344V186.783H1345V188.761ZM891 186.871H890V184.894H891V186.871ZM4 184.807H3V182.829H4V184.807ZM437 184.807H436V182.829H437V184.807ZM1345 184.807H1344V182.829H1345V184.807ZM891 182.917H890V180.939H891V182.917ZM4 180.852H3V178.874H4V180.852ZM437 180.852H436V178.874H437V180.852ZM1345 180.852H1344V178.874H1345V180.852ZM891 178.962H890V176.984H891V178.962ZM4 176.897H3V174.92H4V176.897ZM437 176.897H436V174.92H437V176.897ZM1345 176.897H1344V174.92H1345V176.897ZM891 175.008H890V173.03H891V175.008ZM4 172.942H3V171.954H4V172.942ZM437 172.942H436V171.954H437V172.942ZM1344.5 170.509C1344.78 170.509 1345 170.733 1345 171.009C1345 171.23 1344.86 171.416 1344.66 171.481C1344.86 171.547 1345 171.733 1345 171.954V172.942H1344V171.954C1344 171.759 1344.11 171.591 1344.28 171.509H1343.49C1343.21 171.509 1342.99 171.285 1342.99 171.009C1342.99 170.733 1343.21 170.509 1343.49 170.509H1344.5ZM5.51367 170.509C5.78966 170.509 6.01367 170.733 6.01367 171.009C6.01367 171.285 5.78966 171.509 5.51367 171.509H4.5C4.22386 171.509 4 171.285 4 171.009C4 170.733 4.22386 170.509 4.5 170.509H5.51367ZM9.56055 170.509C9.83669 170.509 10.0605 170.733 10.0605 171.009C10.0605 171.285 9.83669 171.509 9.56055 171.509H7.53809C7.26204 171.509 7.03809 171.285 7.03809 171.009C7.03809 170.733 7.26204 170.509 7.53809 170.509H9.56055ZM13.5996 170.509C13.8757 170.509 14.0996 170.733 14.0996 171.009C14.0996 171.285 13.8757 171.509 13.5996 171.509H11.5811C11.305 171.509 11.0811 171.285 11.0811 171.009C11.0811 170.733 11.305 170.509 11.5811 170.509H13.5996ZM17.6289 170.509C17.905 170.509 18.1289 170.733 18.1289 171.009C18.1289 171.285 17.905 171.509 17.6289 171.509H15.6152C15.3391 171.509 15.1152 171.285 15.1152 171.009C15.1152 170.733 15.3391 170.509 15.6152 170.509H17.6289ZM21.6494 170.509C21.9254 170.509 22.1494 170.733 22.1494 171.009C22.1494 171.285 21.9254 171.509 21.6494 171.509H19.6396C19.3637 171.509 19.1396 171.285 19.1396 171.009C19.1396 170.733 19.3637 170.509 19.6396 170.509H21.6494ZM25.6602 170.509C25.9363 170.509 26.1602 170.733 26.1602 171.009C26.1602 171.285 25.9363 171.509 25.6602 171.509H23.6562C23.3801 171.509 23.1562 171.285 23.1562 171.009C23.1562 170.733 23.3801 170.509 23.6562 170.509H25.6602ZM29.6631 170.509C29.9391 170.509 30.1631 170.733 30.1631 171.009C30.1631 171.285 29.9391 171.509 29.6631 171.509H27.6631C27.3869 171.509 27.1631 171.285 27.1631 171.009C27.1631 170.733 27.3869 170.509 27.6631 170.509H29.6631ZM33.6562 170.509C33.9324 170.509 34.1562 170.733 34.1562 171.009C34.1562 171.285 33.9324 171.509 33.6562 171.509H31.6611C31.385 171.509 31.1611 171.285 31.1611 171.009C31.1611 170.733 31.385 170.509 31.6611 170.509H33.6562ZM37.6406 170.509C37.9168 170.509 38.1406 170.733 38.1406 171.009C38.1406 171.285 37.9168 171.509 37.6406 171.509H35.6494C35.3734 171.509 35.1494 171.285 35.1494 171.009C35.1494 170.733 35.3734 170.509 35.6494 170.509H37.6406ZM41.6172 170.509C41.8932 170.509 42.1172 170.733 42.1172 171.009C42.1172 171.285 41.8932 171.509 41.6172 171.509H39.6299C39.3538 171.509 39.1299 171.285 39.1299 171.009C39.1299 170.733 39.3538 170.509 39.6299 170.509H41.6172ZM45.584 170.509C45.8601 170.509 46.084 170.733 46.084 171.009C46.084 171.285 45.8601 171.509 45.584 171.509H43.6016C43.3254 171.509 43.1016 171.285 43.1016 171.009C43.1016 170.733 43.3254 170.509 43.6016 170.509H45.584ZM49.542 170.509C49.8181 170.509 50.042 170.733 50.042 171.009C50.042 171.285 49.8181 171.509 49.542 171.509H47.5645C47.2883 171.509 47.0645 171.285 47.0645 171.009C47.0645 170.733 47.2883 170.509 47.5645 170.509H49.542ZM53.5078 170.509C53.7839 170.509 54.0078 170.733 54.0078 171.009C54.0078 171.285 53.7839 171.509 53.5078 171.509H51.5186C51.2424 171.509 51.0186 171.285 51.0186 171.009C51.0186 170.733 51.2424 170.509 51.5186 170.509H53.5078ZM57.5547 170.509C57.8306 170.509 58.0547 170.733 58.0547 171.009C58.0547 171.285 57.8306 171.509 57.5547 171.509H55.5322C55.2561 171.509 55.0322 171.285 55.0322 171.009C55.0322 170.733 55.2561 170.509 55.5322 170.509H57.5547ZM61.5918 170.509C61.8679 170.509 62.0918 170.733 62.0918 171.009C62.0918 171.285 61.8679 171.509 61.5918 171.509H59.5742C59.2981 171.509 59.0742 171.285 59.0742 171.009C59.0742 170.733 59.2981 170.509 59.5742 170.509H61.5918ZM65.6201 170.509C65.8963 170.509 66.1201 170.733 66.1201 171.009C66.1201 171.285 65.8963 171.509 65.6201 171.509H63.6074C63.3313 171.509 63.1074 171.285 63.1074 171.009C63.1074 170.733 63.3313 170.509 63.6074 170.509H65.6201ZM69.6396 170.509C69.9158 170.509 70.1396 170.733 70.1396 171.009C70.1396 171.285 69.9158 171.509 69.6396 171.509H67.6309C67.3548 171.509 67.1309 171.285 67.1309 171.009C67.1309 170.733 67.3548 170.509 67.6309 170.509H69.6396ZM73.6504 170.509C73.9265 170.509 74.1504 170.733 74.1504 171.009C74.1504 171.285 73.9265 171.509 73.6504 171.509H71.6465C71.3703 171.509 71.1465 171.285 71.1465 171.009C71.1465 170.733 71.3703 170.509 71.6465 170.509H73.6504ZM77.6523 170.509C77.9284 170.509 78.1523 170.733 78.1523 171.009C78.1523 171.285 77.9284 171.509 77.6523 171.509H75.6523C75.3762 171.509 75.1523 171.285 75.1523 171.009C75.1523 170.733 75.3762 170.509 75.6523 170.509H77.6523ZM81.6455 170.509C81.9216 170.509 82.1455 170.733 82.1455 171.009C82.1455 171.285 81.9216 171.509 81.6455 171.509H79.6494C79.3735 171.509 79.1494 171.285 79.1494 171.009C79.1494 170.733 79.3735 170.509 79.6494 170.509H81.6455ZM85.6299 170.509C85.9059 170.509 86.1299 170.733 86.1299 171.009C86.1299 171.285 85.9059 171.509 85.6299 171.509H83.6387C83.3625 171.509 83.1387 171.285 83.1387 171.009C83.1387 170.733 83.3625 170.509 83.6387 170.509H85.6299ZM89.6055 170.509C89.8815 170.509 90.1055 170.733 90.1055 171.009C90.1055 171.285 89.8815 171.509 89.6055 171.509H87.6182C87.3422 171.509 87.1182 171.285 87.1182 171.009C87.1182 170.733 87.3422 170.509 87.6182 170.509H89.6055ZM93.5723 170.509C93.8484 170.509 94.0723 170.733 94.0723 171.009C94.0723 171.285 93.8484 171.509 93.5723 171.509H91.5898C91.3137 171.509 91.0898 171.285 91.0898 171.009C91.0898 170.733 91.3137 170.509 91.5898 170.509H93.5723ZM97.5312 170.509C97.8072 170.509 98.0312 170.733 98.0312 171.009C98.0312 171.285 97.8072 171.509 97.5312 171.509H95.5527C95.2766 171.509 95.0527 171.285 95.0527 171.009C95.0527 170.733 95.2766 170.509 95.5527 170.509H97.5312ZM101.518 170.509C101.794 170.509 102.018 170.733 102.018 171.009C102.018 171.285 101.794 171.509 101.518 171.509H99.5068C99.2307 171.509 99.0068 171.285 99.0068 171.009C99.0068 170.733 99.2307 170.509 99.5068 170.509H101.518ZM105.561 170.509C105.836 170.509 106.061 170.733 106.061 171.009C106.061 171.285 105.836 171.509 105.561 171.509H103.54C103.264 171.509 103.04 171.285 103.04 171.009C103.04 170.733 103.264 170.509 103.54 170.509H105.561ZM109.594 170.509C109.87 170.509 110.094 170.733 110.094 171.009C110.094 171.285 109.87 171.509 109.594 171.509H107.578C107.302 171.509 107.078 171.285 107.078 171.009C107.078 170.733 107.302 170.509 107.578 170.509H109.594ZM113.618 170.509C113.894 170.509 114.118 170.733 114.118 171.009C114.118 171.285 113.894 171.509 113.618 171.509H111.607C111.331 171.509 111.107 171.285 111.107 171.009C111.107 170.733 111.331 170.509 111.607 170.509H113.618ZM117.635 170.509C117.911 170.509 118.135 170.733 118.135 171.009C118.135 171.285 117.911 171.509 117.635 171.509H115.627C115.351 171.509 115.127 171.285 115.127 171.009C115.127 170.733 115.351 170.509 115.627 170.509H117.635ZM121.642 170.509C121.918 170.509 122.142 170.733 122.142 171.009C122.142 171.285 121.918 171.509 121.642 171.509H119.639C119.363 171.509 119.139 171.285 119.139 171.009C119.139 170.733 119.363 170.509 119.639 170.509H121.642ZM125.641 170.509C125.917 170.509 126.141 170.733 126.141 171.009C126.141 171.285 125.917 171.509 125.641 171.509H123.642C123.366 171.509 123.142 171.285 123.142 171.009C123.142 170.733 123.366 170.509 123.642 170.509H125.641ZM129.63 170.509C129.906 170.509 130.13 170.733 130.13 171.009C130.13 171.285 129.906 171.509 129.63 171.509H127.637C127.361 171.509 127.137 171.285 127.137 171.009C127.137 170.733 127.361 170.509 127.637 170.509H129.63ZM133.612 170.509C133.888 170.509 134.112 170.733 134.112 171.009C134.112 171.285 133.888 171.509 133.612 171.509H131.622C131.346 171.509 131.122 171.285 131.122 171.009C131.122 170.733 131.346 170.509 131.622 170.509H133.612ZM137.585 170.509C137.861 170.509 138.085 170.733 138.085 171.009C138.085 171.285 137.861 171.509 137.585 171.509H135.6C135.323 171.509 135.1 171.285 135.1 171.009C135.1 170.733 135.323 170.509 135.6 170.509H137.585ZM141.55 170.509C141.826 170.509 142.05 170.733 142.05 171.009C142.05 171.285 141.826 171.509 141.55 171.509H139.568C139.292 171.509 139.068 171.285 139.068 171.009C139.068 170.733 139.292 170.509 139.568 170.509H141.55ZM145.506 170.509C145.782 170.509 146.006 170.733 146.006 171.009C146.006 171.285 145.782 171.509 145.506 171.509H143.529C143.253 171.509 143.029 171.285 143.029 171.009C143.029 170.733 143.253 170.509 143.529 170.509H145.506ZM149.538 170.509C149.814 170.509 150.038 170.733 150.038 171.009C150.038 171.285 149.814 171.509 149.538 171.509H147.518C147.241 171.509 147.018 171.285 147.018 171.009C147.018 170.733 147.241 170.509 147.518 170.509H149.538ZM153.574 170.509C153.85 170.509 154.074 170.733 154.074 171.009C154.074 171.285 153.85 171.509 153.574 171.509H151.558C151.281 171.509 151.058 171.285 151.058 171.009C151.058 170.733 151.281 170.509 151.558 170.509H153.574ZM157.601 170.509C157.877 170.509 158.101 170.733 158.101 171.009C158.101 171.285 157.877 171.509 157.601 171.509H155.589C155.313 171.509 155.089 171.285 155.089 171.009C155.089 170.733 155.313 170.509 155.589 170.509H157.601ZM161.619 170.509C161.895 170.509 162.119 170.733 162.119 171.009C162.119 171.285 161.895 171.509 161.619 171.509H159.611C159.335 171.509 159.111 171.285 159.111 171.009C159.111 170.733 159.335 170.509 159.611 170.509H161.619ZM165.63 170.509C165.906 170.509 166.13 170.733 166.13 171.009C166.13 171.285 165.906 171.509 165.63 171.509H163.626C163.35 171.509 163.126 171.285 163.126 171.009C163.126 170.733 163.35 170.509 163.626 170.509H165.63ZM169.631 170.509C169.907 170.509 170.131 170.733 170.131 171.009C170.131 171.285 169.907 171.509 169.631 171.509H167.632C167.356 171.509 167.132 171.285 167.132 171.009C167.132 170.733 167.356 170.509 167.632 170.509H169.631ZM173.624 170.509C173.9 170.509 174.124 170.733 174.124 171.009C174.124 171.285 173.9 171.509 173.624 171.509H171.629C171.353 171.509 171.129 171.285 171.129 171.009C171.129 170.733 171.353 170.509 171.629 170.509H173.624ZM177.609 170.509C177.886 170.509 178.109 170.733 178.109 171.009C178.109 171.285 177.886 171.509 177.609 171.509H175.618C175.342 171.509 175.118 171.285 175.118 171.009C175.118 170.733 175.342 170.509 175.618 170.509H177.609ZM181.586 170.509C181.862 170.509 182.086 170.733 182.086 171.009C182.086 171.285 181.862 171.509 181.586 171.509H179.599C179.323 171.509 179.099 171.285 179.099 171.009C179.099 170.733 179.323 170.509 179.599 170.509H181.586ZM185.555 170.509C185.831 170.509 186.055 170.733 186.055 171.009C186.055 171.285 185.831 171.509 185.555 171.509H183.571C183.295 171.509 183.071 171.285 183.071 171.009C183.071 170.733 183.295 170.509 183.571 170.509H185.555ZM189.516 170.509C189.792 170.509 190.016 170.733 190.016 171.009C190.016 171.285 189.792 171.509 189.516 171.509H187.536C187.26 171.509 187.036 171.285 187.036 171.009C187.036 170.733 187.26 170.509 187.536 170.509H189.516ZM193.527 170.509C193.803 170.509 194.027 170.733 194.027 171.009C194.027 171.285 193.803 171.509 193.527 171.509H191.507C191.231 171.509 191.007 171.285 191.007 171.009C191.007 170.733 191.231 170.509 191.507 170.509H193.527ZM197.562 170.509C197.839 170.509 198.062 170.733 198.062 171.009C198.062 171.285 197.839 171.509 197.562 171.509H195.546C195.27 171.509 195.046 171.285 195.046 171.009C195.046 170.733 195.27 170.509 195.546 170.509H197.562ZM201.59 170.509C201.866 170.509 202.09 170.733 202.09 171.009C202.09 171.285 201.866 171.509 201.59 171.509H199.577C199.301 171.509 199.077 171.285 199.077 171.009C199.077 170.733 199.301 170.509 199.577 170.509H201.59ZM205.608 170.509C205.884 170.509 206.108 170.733 206.108 171.009C206.108 171.285 205.884 171.509 205.608 171.509H203.6C203.324 171.509 203.1 171.285 203.1 171.009C203.1 170.733 203.324 170.509 203.6 170.509H205.608ZM209.618 170.509C209.894 170.509 210.118 170.733 210.118 171.009C210.118 171.285 209.894 171.509 209.618 171.509H207.614C207.338 171.509 207.114 171.285 207.114 171.009C207.114 170.733 207.338 170.509 207.614 170.509H209.618ZM213.621 170.509C213.897 170.509 214.121 170.733 214.121 171.009C214.121 171.285 213.897 171.509 213.621 171.509H211.621C211.345 171.509 211.121 171.285 211.121 171.009C211.121 170.733 211.345 170.509 211.621 170.509H213.621ZM217.615 170.509C217.891 170.509 218.115 170.733 218.115 171.009C218.115 171.285 217.891 171.509 217.615 171.509H215.619C215.343 171.509 215.119 171.285 215.119 171.009C215.119 170.733 215.343 170.509 215.619 170.509H217.615ZM221.602 170.509C221.878 170.509 222.102 170.733 222.102 171.009C222.102 171.285 221.878 171.509 221.602 171.509H219.609C219.333 171.509 219.109 171.285 219.109 171.009C219.109 170.733 219.333 170.509 219.609 170.509H221.602ZM225.58 170.509C225.856 170.509 226.08 170.733 226.08 171.009C226.08 171.285 225.856 171.509 225.58 171.509H223.592C223.316 171.509 223.092 171.285 223.092 171.009C223.092 170.733 223.316 170.509 223.592 170.509H225.58ZM229.55 170.509C229.826 170.509 230.05 170.733 230.05 171.009C230.05 171.285 229.826 171.509 229.55 171.509H227.565C227.29 171.509 227.065 171.285 227.065 171.009C227.065 170.733 227.29 170.509 227.565 170.509H229.55ZM233.513 170.509C233.789 170.509 234.013 170.733 234.013 171.009C234.013 171.285 233.789 171.509 233.513 171.509H231.532C231.256 171.509 231.032 171.285 231.032 171.009C231.032 170.733 231.256 170.509 231.532 170.509H233.513ZM237.527 170.509C237.803 170.509 238.027 170.733 238.027 171.009C238.027 171.285 237.803 171.509 237.527 171.509H235.508C235.232 171.509 235.008 171.285 235.008 171.009C235.008 170.733 235.232 170.509 235.508 170.509H237.527ZM241.56 170.509C241.836 170.509 242.06 170.733 242.06 171.009C242.06 171.285 241.836 171.509 241.56 171.509H239.544C239.268 171.509 239.044 171.285 239.044 171.009C239.044 170.733 239.268 170.509 239.544 170.509H241.56ZM245.584 170.509C245.86 170.509 246.084 170.733 246.084 171.009C246.084 171.285 245.86 171.509 245.584 171.509H243.572C243.296 171.509 243.072 171.285 243.072 171.009C243.072 170.733 243.296 170.509 243.572 170.509H245.584ZM249.601 170.509C249.877 170.509 250.101 170.733 250.101 171.009C250.101 171.285 249.877 171.509 249.601 171.509H247.593C247.317 171.509 247.093 171.285 247.093 171.009C247.093 170.733 247.317 170.509 247.593 170.509H249.601ZM253.609 170.509C253.885 170.509 254.109 170.733 254.109 171.009C254.109 171.285 253.885 171.509 253.609 171.509H251.605C251.329 171.509 251.105 171.285 251.105 171.009C251.105 170.733 251.329 170.509 251.605 170.509H253.609ZM257.61 170.509C257.886 170.509 258.11 170.733 258.11 171.009C258.11 171.285 257.886 171.509 257.61 171.509H255.61C255.334 171.509 255.11 171.285 255.11 171.009C255.11 170.733 255.334 170.509 255.61 170.509H257.61ZM261.604 170.509C261.88 170.509 262.104 170.733 262.104 171.009C262.104 171.285 261.88 171.509 261.604 171.509H259.607C259.331 171.509 259.107 171.285 259.107 171.009C259.107 170.733 259.331 170.509 259.607 170.509H261.604ZM265.589 170.509C265.865 170.509 266.089 170.733 266.089 171.009C266.089 171.285 265.865 171.509 265.589 171.509H263.597C263.321 171.509 263.097 171.285 263.097 171.009C263.097 170.733 263.321 170.509 263.597 170.509H265.589ZM269.567 170.509C269.843 170.509 270.067 170.733 270.067 171.009C270.067 171.285 269.843 171.509 269.567 171.509H267.579C267.303 171.509 267.079 171.285 267.079 171.009C267.079 170.733 267.303 170.509 267.579 170.509H269.567ZM273.538 170.509C273.814 170.509 274.038 170.733 274.038 171.009C274.038 171.285 273.814 171.509 273.538 171.509H271.554C271.278 171.509 271.054 171.285 271.054 171.009C271.054 170.733 271.278 170.509 271.554 170.509H273.538ZM277.501 170.509C277.777 170.509 278.001 170.733 278.001 171.009C278.001 171.285 277.777 171.509 277.501 171.509H275.521C275.244 171.509 275.021 171.285 275.021 171.009C275.021 170.733 275.244 170.509 275.521 170.509H277.501ZM281.534 170.509C281.81 170.509 282.034 170.733 282.034 171.009C282.034 171.285 281.81 171.509 281.534 171.509H279.518C279.241 171.509 279.018 171.285 279.018 171.009C279.018 170.733 279.241 170.509 279.518 170.509H281.534ZM285.562 170.509C285.838 170.509 286.062 170.733 286.062 171.009C286.062 171.285 285.838 171.509 285.562 171.509H283.549C283.273 171.509 283.049 171.285 283.049 171.009C283.049 170.733 283.273 170.509 283.549 170.509H285.562ZM289.582 170.509C289.858 170.509 290.082 170.733 290.082 171.009C290.082 171.285 289.858 171.509 289.582 171.509H287.572C287.296 171.509 287.072 171.285 287.072 171.009C287.072 170.733 287.296 170.509 287.572 170.509H289.582ZM293.595 170.509C293.871 170.509 294.095 170.733 294.095 171.009C294.095 171.285 293.871 171.509 293.595 171.509H291.589C291.313 171.509 291.089 171.285 291.089 171.009C291.089 170.733 291.313 170.509 291.589 170.509H293.595ZM297.6 170.509C297.876 170.509 298.1 170.733 298.1 171.009C298.1 171.285 297.876 171.509 297.6 171.509H295.598C295.322 171.509 295.098 171.285 295.098 171.009C295.098 170.733 295.322 170.509 295.598 170.509H297.6ZM301.598 170.509C301.874 170.509 302.098 170.733 302.098 171.009C302.098 171.285 301.874 171.509 301.598 171.509H299.6C299.324 171.509 299.1 171.285 299.1 171.009C299.1 170.733 299.324 170.509 299.6 170.509H301.598ZM305.589 170.509C305.865 170.509 306.089 170.733 306.089 171.009C306.089 171.285 305.865 171.509 305.589 171.509H303.595C303.319 171.509 303.095 171.285 303.095 171.009C303.095 170.733 303.319 170.509 303.595 170.509H305.589ZM309.573 170.509C309.849 170.509 310.073 170.733 310.073 171.009C310.073 171.285 309.849 171.509 309.573 171.509H307.582C307.306 171.509 307.082 171.285 307.082 171.009C307.082 170.733 307.306 170.509 307.582 170.509H309.573ZM313.55 170.509C313.826 170.509 314.05 170.733 314.05 171.009C314.05 171.285 313.826 171.509 313.55 171.509H311.562C311.286 171.509 311.062 171.285 311.062 171.009C311.062 170.733 311.286 170.509 311.562 170.509H313.55ZM317.52 170.509C317.796 170.509 318.02 170.733 318.02 171.009C318.02 171.285 317.796 171.509 317.52 171.509H315.536C315.26 171.509 315.036 171.285 315.036 171.009C315.036 170.733 315.26 170.509 315.536 170.509H317.52ZM321.515 170.509C321.791 170.509 322.015 170.733 322.015 171.009C322.015 171.285 321.791 171.509 321.515 171.509H319.502C319.226 171.509 319.002 171.285 319.002 171.009C319.002 170.733 319.226 170.509 319.502 170.509H321.515ZM325.544 170.509C325.82 170.509 326.044 170.733 326.044 171.009C326.044 171.285 325.82 171.509 325.544 171.509H323.53C323.254 171.509 323.03 171.285 323.03 171.009C323.03 170.733 323.254 170.509 323.53 170.509H325.544ZM329.565 170.509C329.842 170.509 330.065 170.733 330.065 171.009C330.065 171.285 329.842 171.509 329.565 171.509H327.556C327.28 171.509 327.056 171.285 327.056 171.009C327.056 170.733 327.28 170.509 327.556 170.509H329.565ZM333.58 170.509C333.856 170.509 334.08 170.733 334.08 171.009C334.08 171.285 333.856 171.509 333.58 171.509H331.573C331.297 171.509 331.073 171.285 331.073 171.009C331.073 170.733 331.297 170.509 331.573 170.509H333.58ZM337.588 170.509C337.864 170.509 338.088 170.733 338.088 171.009C338.088 171.285 337.864 171.509 337.588 171.509H335.585C335.309 171.509 335.085 171.285 335.085 171.009C335.085 170.733 335.309 170.509 335.585 170.509H337.588ZM341.589 170.509C341.865 170.509 342.089 170.733 342.089 171.009C342.089 171.285 341.865 171.509 341.589 171.509H339.59C339.314 171.509 339.09 171.285 339.09 171.009C339.09 170.733 339.314 170.509 339.59 170.509H341.589ZM345.584 170.509C345.86 170.509 346.084 170.733 346.084 171.009C346.084 171.285 345.86 171.509 345.584 171.509H343.587C343.311 171.509 343.087 171.285 343.087 171.009C343.087 170.733 343.311 170.509 343.587 170.509H345.584ZM349.571 170.509C349.847 170.509 350.071 170.733 350.071 171.009C350.071 171.285 349.847 171.509 349.571 171.509H347.578C347.302 171.509 347.078 171.285 347.078 171.009C347.078 170.733 347.302 170.509 347.578 170.509H349.571ZM353.553 170.509C353.829 170.509 354.053 170.733 354.053 171.009C354.053 171.285 353.829 171.509 353.553 171.509H351.562C351.287 171.509 351.062 171.285 351.062 171.009C351.062 170.733 351.287 170.509 351.562 170.509H353.553ZM357.527 170.509C357.803 170.509 358.027 170.733 358.027 171.009C358.027 171.285 357.803 171.509 357.527 171.509H355.541C355.265 171.509 355.041 171.285 355.041 171.009C355.041 170.733 355.265 170.509 355.541 170.509H357.527ZM361.504 170.509C361.78 170.509 362.004 170.733 362.004 171.009C362.004 171.285 361.78 171.509 361.504 171.509H359.513C359.237 171.509 359.013 171.285 359.013 171.009C359.013 170.733 359.237 170.509 359.513 170.509H361.504ZM365.531 170.509C365.807 170.509 366.031 170.733 366.031 171.009C366.031 171.285 365.807 171.509 365.531 171.509H363.519C363.242 171.509 363.019 171.285 363.019 171.009C363.019 170.733 363.242 170.509 363.519 170.509H365.531ZM369.553 170.509C369.829 170.509 370.053 170.733 370.053 171.009C370.053 171.285 369.829 171.509 369.553 171.509H367.543C367.267 171.509 367.043 171.285 367.043 171.009C367.043 170.733 367.267 170.509 367.543 170.509H369.553ZM373.567 170.509C373.844 170.509 374.067 170.733 374.067 171.009C374.067 171.285 373.844 171.509 373.567 171.509H371.561C371.285 171.509 371.061 171.285 371.061 171.009C371.061 170.733 371.285 170.509 371.561 170.509H373.567ZM377.576 170.509C377.852 170.509 378.076 170.733 378.076 171.009C378.076 171.285 377.852 171.509 377.576 171.509H375.573C375.297 171.509 375.073 171.285 375.073 171.009C375.073 170.733 375.297 170.509 375.573 170.509H377.576ZM381.579 170.509C381.855 170.509 382.079 170.733 382.079 171.009C382.079 171.285 381.855 171.509 381.579 171.509H379.578C379.302 171.509 379.078 171.285 379.078 171.009C379.078 170.733 379.302 170.509 379.578 170.509H381.579ZM385.575 170.509C385.851 170.509 386.075 170.733 386.075 171.009C386.075 171.285 385.851 171.509 385.575 171.509H383.578C383.302 171.509 383.078 171.285 383.078 171.009C383.078 170.733 383.302 170.509 383.578 170.509H385.575ZM389.565 170.509C389.842 170.509 390.065 170.733 390.065 171.009C390.065 171.285 389.842 171.509 389.565 171.509H387.571C387.295 171.509 387.071 171.285 387.071 171.009C387.071 170.733 387.295 170.509 387.571 170.509H389.565ZM393.55 170.509C393.826 170.509 394.05 170.733 394.05 171.009C394.05 171.285 393.826 171.509 393.55 171.509H391.559C391.283 171.509 391.059 171.285 391.059 171.009C391.059 170.733 391.283 170.509 391.559 170.509H393.55ZM397.528 170.509C397.804 170.509 398.028 170.733 398.028 171.009C398.028 171.285 397.804 171.509 397.528 171.509H395.54C395.264 171.509 395.04 171.285 395.04 171.009C395.04 170.733 395.264 170.509 395.54 170.509H397.528ZM401.502 170.509C401.778 170.509 402.002 170.733 402.002 171.009C402.002 171.285 401.778 171.509 401.502 171.509H399.516C399.24 171.509 399.016 171.285 399.016 171.009C399.016 170.733 399.24 170.509 399.516 170.509H401.502ZM405.524 170.509C405.8 170.509 406.024 170.733 406.024 171.009C406.024 171.285 405.8 171.509 405.524 171.509H403.512C403.236 171.509 403.012 171.285 403.012 171.009C403.012 170.733 403.236 170.509 403.512 170.509H405.524ZM409.544 170.509C409.82 170.509 410.044 170.733 410.044 171.009C410.044 171.285 409.82 171.509 409.544 171.509H407.534C407.258 171.509 407.034 171.285 407.034 171.009C407.034 170.733 407.258 170.509 407.534 170.509H409.544ZM413.558 170.509C413.834 170.509 414.058 170.733 414.058 171.009C414.058 171.285 413.834 171.509 413.558 171.509H411.551C411.275 171.509 411.051 171.285 411.051 171.009C411.051 170.733 411.275 170.509 411.551 170.509H413.558ZM417.565 170.509C417.842 170.509 418.065 170.733 418.065 171.009C418.065 171.285 417.842 171.509 417.565 171.509H415.562C415.286 171.509 415.062 171.285 415.062 171.009C415.062 170.733 415.286 170.509 415.562 170.509H417.565ZM421.568 170.509C421.845 170.509 422.068 170.733 422.068 171.009C422.068 171.285 421.845 171.509 421.568 171.509H419.567C419.291 171.509 419.067 171.285 419.067 171.009C419.067 170.733 419.291 170.509 419.567 170.509H421.568ZM425.565 170.509C425.842 170.509 426.065 170.733 426.065 171.009C426.065 171.285 425.842 171.509 425.565 171.509H423.567C423.291 171.509 423.067 171.285 423.067 171.009C423.067 170.733 423.291 170.509 423.567 170.509H425.565ZM429.558 170.509C429.834 170.509 430.058 170.733 430.058 171.009C430.058 171.285 429.834 171.509 429.558 171.509H427.562C427.286 171.509 427.062 171.285 427.062 171.009C427.062 170.733 427.286 170.509 427.562 170.509H429.558ZM433.544 170.509C433.82 170.509 434.044 170.733 434.044 171.009C434.044 171.285 433.82 171.509 433.544 171.509H431.552C431.276 171.509 431.052 171.285 431.052 171.009C431.052 170.733 431.276 170.509 431.552 170.509H433.544ZM437.525 170.509C437.802 170.509 438.025 170.733 438.025 171.009C438.025 171.285 437.802 171.509 437.525 171.509H435.535C435.259 171.509 435.035 171.285 435.035 171.009C435.035 170.733 435.259 170.509 435.535 170.509H437.525ZM441.502 170.509C441.778 170.509 442.002 170.733 442.002 171.009C442.002 171.285 441.778 171.509 441.502 171.509H439.515C439.238 171.509 439.015 171.285 439.015 171.009C439.015 170.733 439.238 170.509 439.515 170.509H441.502ZM445.521 170.509C445.797 170.509 446.021 170.733 446.021 171.009C446.021 171.285 445.797 171.509 445.521 171.509H443.51C443.234 171.509 443.01 171.285 443.01 171.009C443.01 170.733 443.234 170.509 443.51 170.509H445.521ZM449.537 170.509C449.813 170.509 450.037 170.733 450.037 171.009C450.037 171.285 449.813 171.509 449.537 171.509H447.529C447.253 171.509 447.029 171.285 447.029 171.009C447.029 170.733 447.253 170.509 447.529 170.509H449.537ZM453.549 170.509C453.825 170.509 454.049 170.733 454.049 171.009C454.049 171.285 453.825 171.509 453.549 171.509H451.544C451.268 171.509 451.044 171.285 451.044 171.009C451.044 170.733 451.268 170.509 451.544 170.509H453.549ZM457.556 170.509C457.832 170.509 458.056 170.733 458.056 171.009C458.056 171.285 457.832 171.509 457.556 171.509H455.553C455.277 171.509 455.053 171.285 455.053 171.009C455.053 170.733 455.277 170.509 455.553 170.509H457.556ZM461.558 170.509C461.834 170.509 462.058 170.733 462.058 171.009C462.058 171.285 461.834 171.509 461.558 171.509H459.558C459.281 171.509 459.058 171.285 459.058 171.009C459.058 170.733 459.281 170.509 459.558 170.509H461.558ZM465.556 170.509C465.832 170.509 466.056 170.733 466.056 171.009C466.056 171.285 465.832 171.509 465.556 171.509H463.558C463.281 171.509 463.058 171.285 463.058 171.009C463.058 170.733 463.281 170.509 463.558 170.509H465.556ZM469.548 170.509C469.824 170.509 470.048 170.733 470.048 171.009C470.048 171.285 469.824 171.509 469.548 171.509H467.552C467.276 171.509 467.052 171.285 467.052 171.009C467.052 170.733 467.276 170.509 467.552 170.509H469.548ZM473.536 170.509C473.812 170.509 474.036 170.733 474.036 171.009C474.036 171.285 473.812 171.509 473.536 171.509H471.543C471.267 171.509 471.043 171.285 471.043 171.009C471.043 170.733 471.267 170.509 471.543 170.509H473.536ZM477.52 170.509C477.796 170.509 478.02 170.733 478.02 171.009C478.02 171.285 477.796 171.509 477.52 171.509H475.528C475.252 171.509 475.028 171.285 475.028 171.009C475.028 170.733 475.252 170.509 475.528 170.509H477.52ZM481.501 170.509C481.777 170.509 482.001 170.733 482.001 171.009C482.001 171.285 481.777 171.509 481.501 171.509H479.51C479.234 171.509 479.01 171.285 479.01 171.009C479.01 170.733 479.234 170.509 479.51 170.509H481.501ZM485.519 170.509C485.795 170.509 486.019 170.733 486.019 171.009C486.019 171.285 485.795 171.509 485.519 171.509H483.511C483.235 171.509 483.011 171.285 483.011 171.009C483.011 170.733 483.235 170.509 483.511 170.509H485.519ZM489.532 170.509C489.808 170.509 490.032 170.733 490.032 171.009C490.032 171.285 489.808 171.509 489.532 171.509H487.525C487.249 171.509 487.025 171.285 487.025 171.009C487.025 170.733 487.249 170.509 487.525 170.509H489.532ZM493.541 170.509C493.817 170.509 494.041 170.733 494.041 171.009C494.041 171.285 493.817 171.509 493.541 171.509H491.537C491.261 171.509 491.037 171.285 491.037 171.009C491.037 170.733 491.261 170.509 491.537 170.509H493.541ZM497.546 170.509C497.822 170.509 498.046 170.733 498.046 171.009C498.046 171.285 497.822 171.509 497.546 171.509H495.544C495.268 171.509 495.044 171.285 495.044 171.009C495.044 170.733 495.268 170.509 495.544 170.509H497.546ZM501.547 170.509C501.823 170.509 502.047 170.733 502.047 171.009C502.047 171.285 501.823 171.509 501.547 171.509H499.547C499.271 171.509 499.047 171.285 499.047 171.009C499.047 170.733 499.271 170.509 499.547 170.509H501.547ZM505.544 170.509C505.82 170.509 506.044 170.733 506.044 171.009C506.044 171.285 505.82 171.509 505.544 171.509H503.546C503.27 171.509 503.046 171.285 503.046 171.009C503.046 170.733 503.27 170.509 503.546 170.509H505.544ZM509.538 170.509C509.814 170.509 510.038 170.733 510.038 171.009C510.038 171.285 509.814 171.509 509.538 171.509H507.541C507.265 171.509 507.041 171.285 507.041 171.009C507.041 170.733 507.265 170.509 507.541 170.509H509.538ZM513.527 170.509C513.803 170.509 514.027 170.733 514.027 171.009C514.027 171.285 513.803 171.509 513.527 171.509H511.533C511.257 171.509 511.033 171.285 511.033 171.009C511.033 170.733 511.257 170.509 511.533 170.509H513.527ZM517.513 170.509C517.789 170.509 518.013 170.733 518.013 171.009C518.013 171.285 517.789 171.509 517.513 171.509H515.521C515.244 171.509 515.021 171.285 515.021 171.009C515.021 170.733 515.244 170.509 515.521 170.509H517.513ZM521.504 170.509C521.78 170.509 522.004 170.733 522.004 171.009C522.004 171.285 521.78 171.509 521.504 171.509H519.505C519.229 171.509 519.005 171.285 519.005 171.009C519.005 170.733 519.229 170.509 519.505 170.509H521.504ZM525.518 170.509C525.794 170.509 526.018 170.733 526.018 171.009C526.018 171.285 525.794 171.509 525.518 171.509H523.511C523.235 171.509 523.011 171.285 523.011 171.009C523.011 170.733 523.235 170.509 523.511 170.509H525.518ZM529.527 170.509C529.803 170.509 530.027 170.733 530.027 171.009C530.027 171.285 529.803 171.509 529.527 171.509H527.522C527.246 171.509 527.022 171.285 527.022 171.009C527.022 170.733 527.246 170.509 527.522 170.509H529.527ZM533.533 170.509C533.809 170.509 534.033 170.733 534.033 171.009C534.033 171.285 533.809 171.509 533.533 171.509H531.53C531.254 171.509 531.03 171.285 531.03 171.009C531.03 170.733 531.254 170.509 531.53 170.509H533.533ZM537.536 170.509C537.812 170.509 538.036 170.733 538.036 171.009C538.036 171.285 537.812 171.509 537.536 171.509H535.535C535.259 171.509 535.035 171.285 535.035 171.009C535.035 170.733 535.259 170.509 535.535 170.509H537.536ZM541.536 170.509C541.812 170.509 542.036 170.733 542.036 171.009C542.036 171.285 541.812 171.509 541.536 171.509H539.537C539.261 171.509 539.037 171.285 539.037 171.009C539.037 170.733 539.261 170.509 539.537 170.509H541.536ZM545.533 170.509C545.809 170.509 546.033 170.733 546.033 171.009C546.033 171.285 545.809 171.509 545.533 171.509H543.535C543.259 171.509 543.035 171.285 543.035 171.009C543.035 170.733 543.259 170.509 543.535 170.509H545.533ZM549.527 170.509C549.803 170.509 550.027 170.733 550.027 171.009C550.027 171.285 549.803 171.509 549.527 171.509H547.53C547.254 171.509 547.03 171.285 547.03 171.009C547.03 170.733 547.254 170.509 547.53 170.509H549.527ZM553.519 170.509C553.794 170.509 554.019 170.733 554.019 171.009C554.019 171.285 553.794 171.509 553.519 171.509H551.523C551.247 171.509 551.023 171.285 551.023 171.009C551.023 170.733 551.247 170.509 551.523 170.509H553.519ZM557.506 170.509C557.782 170.509 558.006 170.733 558.006 171.009C558.006 171.285 557.782 171.509 557.506 171.509H555.513C555.237 171.509 555.013 171.285 555.013 171.009C555.013 170.733 555.237 170.509 555.513 170.509H557.506ZM561.506 170.509C561.782 170.509 562.006 170.733 562.006 171.009C562.006 171.285 561.782 171.509 561.506 171.509H559.501C559.225 171.509 559.001 171.285 559.001 171.009C559.001 170.733 559.225 170.509 559.501 170.509H561.506ZM565.515 170.509C565.791 170.509 566.015 170.733 566.015 171.009C566.015 171.285 565.791 171.509 565.515 171.509H563.511C563.235 171.509 563.011 171.285 563.011 171.009C563.011 170.733 563.235 170.509 563.511 170.509H565.515ZM569.521 170.509C569.797 170.509 570.021 170.733 570.021 171.009C570.021 171.285 569.797 171.509 569.521 171.509H567.519C567.242 171.509 567.019 171.285 567.019 171.009C567.019 170.733 567.242 170.509 567.519 170.509H569.521ZM573.525 170.509C573.801 170.509 574.025 170.733 574.025 171.009C574.025 171.285 573.801 171.509 573.525 171.509H571.523C571.247 171.509 571.023 171.285 571.023 171.009C571.023 170.733 571.247 170.509 571.523 170.509H573.525ZM577.526 170.509C577.802 170.509 578.026 170.733 578.026 171.009C578.026 171.285 577.802 171.509 577.526 171.509H575.526C575.25 171.509 575.026 171.285 575.026 171.009C575.026 170.733 575.25 170.509 575.526 170.509H577.526ZM581.525 170.509C581.802 170.509 582.025 170.733 582.025 171.009C582.025 171.285 581.802 171.509 581.525 171.509H579.526C579.25 171.509 579.026 171.285 579.026 171.009C579.026 170.733 579.25 170.509 579.526 170.509H581.525ZM585.522 170.509C585.799 170.509 586.022 170.733 586.022 171.009C586.022 171.285 585.799 171.509 585.522 171.509H583.524C583.248 171.509 583.024 171.285 583.024 171.009C583.024 170.733 583.248 170.509 583.524 170.509H585.522ZM589.518 170.509C589.794 170.509 590.018 170.733 590.018 171.009C590.018 171.285 589.794 171.509 589.518 171.509H587.521C587.244 171.509 587.021 171.285 587.021 171.009C587.021 170.733 587.244 170.509 587.521 170.509H589.518ZM593.51 170.509C593.786 170.509 594.01 170.733 594.01 171.009C594.01 171.285 593.786 171.509 593.51 171.509H591.514C591.238 171.509 591.014 171.285 591.014 171.009C591.014 170.733 591.238 170.509 591.514 170.509H593.51ZM597.501 170.509C597.777 170.509 598.001 170.733 598.001 171.009C598.001 171.285 597.777 171.509 597.501 171.509H595.506C595.23 171.509 595.006 171.285 595.006 171.009C595.006 170.733 595.23 170.509 595.506 170.509H597.501ZM601.506 170.509C601.782 170.509 602.006 170.733 602.006 171.009C602.006 171.285 601.782 171.509 601.506 171.509H599.503C599.227 171.509 599.003 171.285 599.003 171.009C599.003 170.733 599.227 170.509 599.503 170.509H601.506ZM605.511 170.509C605.787 170.509 606.011 170.733 606.011 171.009C606.011 171.285 605.787 171.509 605.511 171.509H603.509C603.233 171.509 603.009 171.285 603.009 171.009C603.009 170.733 603.233 170.509 603.509 170.509H605.511ZM609.514 170.509C609.79 170.509 610.014 170.733 610.014 171.009C610.014 171.285 609.79 171.509 609.514 171.509H607.513C607.237 171.509 607.013 171.285 607.013 171.009C607.013 170.733 607.237 170.509 607.513 170.509H609.514ZM613.516 170.509C613.792 170.509 614.016 170.733 614.016 171.009C614.016 171.285 613.792 171.509 613.516 171.509H611.515C611.239 171.509 611.015 171.285 611.015 171.009C611.015 170.733 611.239 170.509 611.515 170.509H613.516ZM617.516 170.509C617.792 170.509 618.016 170.733 618.016 171.009C618.016 171.285 617.792 171.509 617.516 171.509H615.516C615.24 171.509 615.016 171.285 615.016 171.009C615.016 170.733 615.24 170.509 615.516 170.509H617.516ZM621.515 170.509C621.791 170.509 622.015 170.733 622.015 171.009C622.015 171.285 621.791 171.509 621.515 171.509H619.516C619.24 171.509 619.016 171.285 619.016 171.009C619.016 170.733 619.24 170.509 619.516 170.509H621.515ZM625.512 170.509C625.788 170.509 626.012 170.733 626.012 171.009C626.012 171.285 625.788 171.509 625.512 171.509H623.514C623.238 171.509 623.014 171.285 623.014 171.009C623.014 170.733 623.238 170.509 623.514 170.509H625.512ZM629.509 170.509C629.785 170.509 630.009 170.733 630.009 171.009C630.009 171.285 629.785 171.509 629.509 171.509H627.511C627.235 171.509 627.011 171.285 627.011 171.009C627.011 170.733 627.235 170.509 627.511 170.509H629.509ZM633.504 170.509C633.78 170.509 634.004 170.733 634.004 171.009C634.004 171.285 633.78 171.509 633.504 171.509H631.506C631.23 171.509 631.006 171.285 631.006 171.009C631.006 170.733 631.23 170.509 631.506 170.509H633.504ZM637.501 170.509C637.777 170.509 638.001 170.733 638.001 171.009C638.001 171.285 637.777 171.509 637.501 171.509H635.501C635.225 171.509 635.001 171.285 635.001 171.009C635.001 170.733 635.225 170.509 635.501 170.509H637.501ZM641.503 170.509C641.779 170.509 642.003 170.733 642.003 171.009C642.003 171.285 641.779 171.509 641.503 171.509H639.502C639.226 171.509 639.002 171.285 639.002 171.009C639.002 170.733 639.226 170.509 639.502 170.509H641.503ZM645.505 170.509C645.781 170.509 646.005 170.733 646.005 171.009C646.005 171.285 645.781 171.509 645.505 171.509H643.504C643.228 171.509 643.004 171.285 643.004 171.009C643.004 170.733 643.228 170.509 643.504 170.509H645.505ZM649.505 170.509C649.781 170.509 650.005 170.733 650.005 171.009C650.005 171.285 649.781 171.509 649.505 171.509H647.505C647.229 171.509 647.005 171.285 647.005 171.009C647.005 170.733 647.229 170.509 647.505 170.509H649.505ZM653.506 170.509C653.782 170.509 654.006 170.733 654.006 171.009C654.006 171.285 653.782 171.509 653.506 171.509H651.506C651.23 171.509 651.006 171.285 651.006 171.009C651.006 170.733 651.23 170.509 651.506 170.509H653.506ZM657.505 170.509C657.781 170.509 658.005 170.733 658.005 171.009C658.005 171.285 657.781 171.509 657.505 171.509H655.505C655.229 171.509 655.005 171.285 655.005 171.009C655.005 170.733 655.229 170.509 655.505 170.509H657.505ZM661.504 170.509C661.78 170.509 662.004 170.733 662.004 171.009C662.004 171.285 661.78 171.509 661.504 171.509H659.505C659.229 171.509 659.005 171.285 659.005 171.009C659.005 170.733 659.229 170.509 659.505 170.509H661.504ZM664.021 170.509H665.503C665.779 170.509 666.003 170.733 666.003 171.009C666.003 171.285 665.779 171.509 665.503 171.509H663.504C663.228 171.509 663.004 171.285 663.004 171.009C663.004 170.733 663.228 170.509 663.504 170.509H663.979L661.113 165.546H666.887L664.021 170.509ZM669.502 170.509C669.778 170.509 670.002 170.733 670.002 171.009C670.002 171.285 669.778 171.509 669.502 171.509H667.503C667.227 171.509 667.003 171.285 667.003 171.009C667.003 170.733 667.227 170.509 667.503 170.509H669.502ZM673.5 170.509C673.776 170.509 674 170.733 674 171.009C674 171.285 673.776 171.509 673.5 171.509H671.501C671.225 171.509 671.001 171.285 671.001 171.009C671.001 170.733 671.225 170.509 671.501 170.509H673.5ZM677.499 170.509C677.775 170.509 677.999 170.733 677.999 171.009C677.999 171.285 677.775 171.509 677.499 171.509H675.5C675.224 171.509 675 171.285 675 171.009C675 170.733 675.224 170.509 675.5 170.509H677.499ZM681.498 170.509C681.774 170.509 681.998 170.733 681.998 171.009C681.998 171.285 681.774 171.509 681.498 171.509H679.498C679.222 171.509 678.998 171.285 678.998 171.009C678.998 170.733 679.222 170.509 679.498 170.509H681.498ZM685.496 170.509C685.772 170.509 685.996 170.733 685.996 171.009C685.996 171.285 685.772 171.509 685.496 171.509H683.497C683.221 171.509 682.997 171.285 682.997 171.009C682.997 170.733 683.221 170.509 683.497 170.509H685.496ZM689.495 170.509C689.771 170.509 689.995 170.733 689.995 171.009C689.995 171.285 689.771 171.509 689.495 171.509H687.496C687.22 171.509 686.996 171.285 686.996 171.009C686.996 170.733 687.22 170.509 687.496 170.509H689.495ZM693.495 170.509C693.771 170.509 693.995 170.733 693.995 171.009C693.995 171.285 693.771 171.509 693.495 171.509H691.495C691.219 171.509 690.995 171.285 690.995 171.009C690.995 170.733 691.219 170.509 691.495 170.509H693.495ZM697.494 170.509C697.77 170.509 697.994 170.733 697.994 171.009C697.994 171.285 697.77 171.509 697.494 171.509H695.495C695.219 171.509 694.995 171.285 694.995 171.009C694.995 170.733 695.219 170.509 695.495 170.509H697.494ZM701.495 170.509C701.771 170.509 701.995 170.733 701.995 171.009C701.995 171.285 701.771 171.509 701.495 171.509H699.495C699.219 171.509 698.995 171.285 698.995 171.009C698.995 170.733 699.219 170.509 699.495 170.509H701.495ZM705.496 170.509C705.772 170.509 705.996 170.733 705.996 171.009C705.996 171.285 705.772 171.509 705.496 171.509H703.495C703.219 171.509 702.995 171.285 702.995 171.009C702.995 170.733 703.219 170.509 703.495 170.509H705.496ZM709.498 170.509C709.774 170.509 709.998 170.733 709.998 171.009C709.998 171.285 709.774 171.509 709.498 171.509H707.497C707.221 171.509 706.997 171.285 706.997 171.009C706.997 170.733 707.221 170.509 707.497 170.509H709.498ZM713.499 170.509C713.775 170.509 713.999 170.733 713.999 171.009C713.999 171.285 713.775 171.509 713.499 171.509H711.499C711.223 171.509 710.999 171.285 710.999 171.009C710.999 170.733 711.223 170.509 711.499 170.509H713.499ZM717.494 170.509C717.77 170.509 717.994 170.733 717.994 171.009C717.994 171.285 717.77 171.509 717.494 171.509H715.496C715.22 171.509 714.996 171.285 714.996 171.009C714.996 170.733 715.22 170.509 715.496 170.509H717.494ZM721.489 170.509C721.765 170.509 721.989 170.733 721.989 171.009C721.989 171.285 721.765 171.509 721.489 171.509H719.491C719.215 171.509 718.991 171.285 718.991 171.009C718.991 170.733 719.215 170.509 719.491 170.509H721.489ZM725.486 170.509C725.762 170.509 725.986 170.733 725.986 171.009C725.986 171.285 725.762 171.509 725.486 171.509H723.488C723.212 171.509 722.988 171.285 722.988 171.009C722.988 170.733 723.212 170.509 723.488 170.509H725.486ZM729.484 170.509C729.76 170.509 729.984 170.733 729.984 171.009C729.984 171.285 729.76 171.509 729.484 171.509H727.485C727.209 171.509 726.985 171.285 726.985 171.009C726.985 170.733 727.209 170.509 727.485 170.509H729.484ZM733.484 170.509C733.76 170.509 733.984 170.733 733.984 171.009C733.984 171.285 733.76 171.509 733.484 171.509H731.484C731.208 171.509 730.984 171.285 730.984 171.009C730.984 170.733 731.208 170.509 731.484 170.509H733.484ZM737.485 170.509C737.761 170.509 737.985 170.733 737.985 171.009C737.985 171.285 737.761 171.509 737.485 171.509H735.484C735.208 171.509 734.984 171.285 734.984 171.009C734.984 170.733 735.208 170.509 735.484 170.509H737.485ZM741.487 170.509C741.763 170.509 741.987 170.733 741.987 171.009C741.987 171.285 741.763 171.509 741.487 171.509H739.486C739.21 171.509 738.986 171.285 738.986 171.009C738.986 170.733 739.21 170.509 739.486 170.509H741.487ZM745.491 170.509C745.767 170.509 745.991 170.733 745.991 171.009C745.991 171.285 745.767 171.509 745.491 171.509H743.489C743.213 171.509 742.989 171.285 742.989 171.009C742.989 170.733 743.213 170.509 743.489 170.509H745.491ZM749.497 170.509C749.773 170.509 749.997 170.733 749.997 171.009C749.997 171.285 749.773 171.509 749.497 171.509H747.494C747.218 171.509 746.994 171.285 746.994 171.009C746.994 170.733 747.218 170.509 747.494 170.509H749.497ZM753.494 170.509C753.77 170.509 753.994 170.733 753.994 171.009C753.994 171.285 753.77 171.509 753.494 171.509H751.499C751.223 171.509 750.999 171.285 750.999 171.009C750.999 170.733 751.223 170.509 751.499 170.509H753.494ZM757.486 170.509C757.762 170.509 757.986 170.733 757.986 171.009C757.986 171.285 757.762 171.509 757.486 171.509H755.49C755.214 171.509 754.99 171.285 754.99 171.009C754.99 170.733 755.214 170.509 755.49 170.509H757.486ZM761.48 170.509C761.756 170.509 761.98 170.733 761.98 171.009C761.98 171.285 761.756 171.509 761.48 171.509H759.482C759.206 171.509 758.982 171.285 758.982 171.009C758.982 170.733 759.206 170.509 759.482 170.509H761.48ZM765.476 170.509C765.752 170.509 765.976 170.733 765.976 171.009C765.976 171.285 765.752 171.509 765.476 171.509H763.478C763.201 171.509 762.978 171.285 762.978 171.009C762.978 170.733 763.201 170.509 763.478 170.509H765.476ZM769.474 170.509C769.75 170.509 769.974 170.733 769.974 171.009C769.974 171.285 769.75 171.509 769.474 171.509H767.475C767.198 171.509 766.975 171.285 766.975 171.009C766.975 170.733 767.198 170.509 767.475 170.509H769.474ZM773.474 170.509C773.75 170.509 773.974 170.733 773.974 171.009C773.974 171.285 773.75 171.509 773.474 171.509H771.474C771.198 171.509 770.974 171.285 770.974 171.009C770.974 170.733 771.198 170.509 771.474 170.509H773.474ZM777.477 170.509C777.753 170.509 777.977 170.733 777.977 171.009C777.977 171.285 777.753 171.509 777.477 171.509H775.475C775.199 171.509 774.975 171.285 774.975 171.009C774.975 170.733 775.199 170.509 775.475 170.509H777.477ZM781.481 170.509C781.758 170.509 781.981 170.733 781.981 171.009C781.981 171.285 781.758 171.509 781.481 171.509H779.479C779.203 171.509 778.979 171.285 778.979 171.009C778.979 170.733 779.203 170.509 779.479 170.509H781.481ZM785.489 170.509C785.765 170.509 785.989 170.733 785.989 171.009C785.989 171.285 785.765 171.509 785.489 171.509H783.485C783.209 171.509 782.985 171.285 782.985 171.009C782.985 170.733 783.209 170.509 783.485 170.509H785.489ZM789.499 170.509C789.775 170.509 789.999 170.733 789.999 171.009C789.999 171.285 789.775 171.509 789.499 171.509H787.494C787.218 171.509 786.994 171.285 786.994 171.009C786.994 170.733 787.218 170.509 787.494 170.509H789.499ZM793.487 170.509C793.763 170.509 793.987 170.733 793.987 171.009C793.987 171.285 793.763 171.509 793.487 171.509H791.494C791.218 171.509 790.994 171.285 790.994 171.009C790.994 170.733 791.218 170.509 791.494 170.509H793.487ZM797.478 170.509C797.753 170.509 797.978 170.733 797.978 171.009C797.978 171.285 797.753 171.509 797.478 171.509H795.482C795.206 171.509 794.982 171.285 794.982 171.009C794.982 170.733 795.206 170.509 795.482 170.509H797.478ZM801.47 170.509C801.746 170.509 801.97 170.733 801.97 171.009C801.97 171.285 801.746 171.509 801.47 171.509H799.473C799.197 171.509 798.973 171.285 798.973 171.009C798.973 170.733 799.197 170.509 799.473 170.509H801.47ZM805.465 170.509C805.741 170.509 805.965 170.733 805.965 171.009C805.965 171.285 805.741 171.509 805.465 171.509H803.467C803.191 171.509 802.967 171.285 802.967 171.009C802.967 170.733 803.191 170.509 803.467 170.509H805.465ZM809.463 170.509C809.739 170.509 809.963 170.733 809.963 171.009C809.963 171.285 809.739 171.509 809.463 171.509H807.464C807.188 171.509 806.964 171.285 806.964 171.009C806.964 170.733 807.188 170.509 807.464 170.509H809.463ZM813.465 170.509C813.741 170.509 813.965 170.733 813.965 171.009C813.965 171.285 813.741 171.509 813.465 171.509H811.464C811.188 171.509 810.964 171.285 810.964 171.009C810.964 170.733 811.188 170.509 811.464 170.509H813.465ZM817.47 170.509C817.746 170.509 817.97 170.733 817.97 171.009C817.97 171.285 817.746 171.509 817.47 171.509H815.467C815.191 171.509 814.967 171.285 814.967 171.009C814.967 170.733 815.191 170.509 815.467 170.509H817.47ZM821.478 170.509C821.754 170.509 821.978 170.733 821.978 171.009C821.978 171.285 821.754 171.509 821.478 171.509H819.473C819.197 171.509 818.973 171.285 818.973 171.009C818.973 170.733 819.197 170.509 819.473 170.509H821.478ZM825.489 170.509C825.765 170.509 825.989 170.733 825.989 171.009C825.989 171.285 825.765 171.509 825.489 171.509H823.482C823.206 171.509 822.982 171.285 822.982 171.009C822.982 170.733 823.206 170.509 823.482 170.509H825.489ZM829.495 170.509C829.771 170.509 829.995 170.733 829.995 171.009C829.995 171.285 829.771 171.509 829.495 171.509H827.496C827.22 171.509 826.996 171.285 826.996 171.009C826.996 170.733 827.22 170.509 827.496 170.509H829.495ZM833.479 170.509C833.756 170.509 833.979 170.733 833.979 171.009C833.979 171.285 833.756 171.509 833.479 171.509H831.487C831.211 171.509 830.987 171.285 830.987 171.009C830.987 170.733 831.211 170.509 831.487 170.509H833.479ZM837.467 170.509C837.743 170.509 837.967 170.733 837.967 171.009C837.967 171.285 837.743 171.509 837.467 171.509H835.473C835.197 171.509 834.973 171.285 834.973 171.009C834.973 170.733 835.197 170.509 835.473 170.509H837.467ZM841.459 170.509C841.735 170.509 841.959 170.733 841.959 171.009C841.959 171.285 841.735 171.509 841.459 171.509H839.462C839.186 171.509 838.962 171.285 838.962 171.009C838.962 170.733 839.186 170.509 839.462 170.509H841.459ZM845.454 170.509C845.73 170.509 845.954 170.733 845.954 171.009C845.954 171.285 845.73 171.509 845.454 171.509H843.456C843.18 171.509 842.956 171.285 842.956 171.009C842.956 170.733 843.18 170.509 843.456 170.509H845.454ZM849.453 170.509C849.729 170.509 849.953 170.733 849.953 171.009C849.953 171.285 849.729 171.509 849.453 171.509H847.453C847.177 171.509 846.953 171.285 846.953 171.009C846.953 170.733 847.177 170.509 847.453 170.509H849.453ZM853.456 170.509C853.732 170.509 853.956 170.733 853.956 171.009C853.956 171.285 853.732 171.509 853.456 171.509H851.454C851.178 171.509 850.954 171.285 850.954 171.009C850.954 170.733 851.178 170.509 851.454 170.509H853.456ZM857.463 170.509C857.739 170.509 857.963 170.733 857.963 171.009C857.963 171.285 857.739 171.509 857.463 171.509H855.459C855.183 171.509 854.959 171.285 854.959 171.009C854.959 170.733 855.183 170.509 855.459 170.509H857.463ZM861.475 170.509C861.751 170.509 861.975 170.733 861.975 171.009C861.975 171.285 861.751 171.509 861.475 171.509H859.468C859.192 171.509 858.968 171.285 858.968 171.009C858.968 170.733 859.192 170.509 859.468 170.509H861.475ZM865.49 170.509C865.766 170.509 865.99 170.733 865.99 171.009C865.99 171.285 865.766 171.509 865.49 171.509H863.481C863.205 171.509 862.981 171.285 862.981 171.009C862.981 170.733 863.205 170.509 863.481 170.509H865.49ZM869.49 170.509C869.766 170.509 869.99 170.733 869.99 171.009C869.99 171.285 869.766 171.509 869.49 171.509H867.499C867.223 171.509 866.999 171.285 866.999 171.009C866.999 170.733 867.223 170.509 867.499 170.509H869.49ZM873.472 170.509C873.748 170.509 873.972 170.733 873.972 171.009C873.972 171.285 873.748 171.509 873.472 171.509H871.48C871.204 171.509 870.98 171.285 870.98 171.009C870.98 170.733 871.204 170.509 871.48 170.509H873.472ZM877.457 170.509C877.733 170.509 877.957 170.733 877.957 171.009C877.957 171.285 877.733 171.509 877.457 171.509H875.464C875.188 171.509 874.964 171.285 874.964 171.009C874.964 170.733 875.188 170.509 875.464 170.509H877.457ZM881.448 170.509C881.724 170.509 881.948 170.733 881.948 171.009C881.948 171.285 881.724 171.509 881.448 171.509H879.452C879.176 171.509 878.952 171.285 878.952 171.009C878.952 170.733 879.176 170.509 879.452 170.509H881.448ZM885.442 170.509C885.719 170.509 885.942 170.733 885.942 171.009C885.942 171.285 885.719 171.509 885.442 171.509H883.444C883.168 171.509 882.944 171.285 882.944 171.009C882.944 170.733 883.168 170.509 883.444 170.509H885.442ZM889.442 170.509C889.719 170.509 889.942 170.733 889.942 171.009C889.942 171.285 889.719 171.509 889.442 171.509H887.442C887.166 171.509 886.942 171.285 886.942 171.009C886.942 170.733 887.166 170.509 887.442 170.509H889.442ZM891 170.783C891.083 170.621 891.25 170.509 891.444 170.509H893.447C893.723 170.509 893.947 170.733 893.947 171.009C893.947 171.285 893.723 171.509 893.447 171.509H891.444C891.183 171.509 890.971 171.308 890.948 171.053H890V170.064H891V170.783ZM897.456 170.509C897.732 170.509 897.956 170.733 897.956 171.009C897.956 171.285 897.732 171.509 897.456 171.509H895.451C895.175 171.509 894.951 171.285 894.951 171.009C894.951 170.733 895.175 170.509 895.451 170.509H897.456ZM901.471 170.509C901.747 170.509 901.971 170.733 901.971 171.009C901.971 171.285 901.747 171.509 901.471 171.509H899.463C899.187 171.509 898.963 171.285 898.963 171.009C898.963 170.733 899.187 170.509 899.463 170.509H901.471ZM905.49 170.509C905.766 170.509 905.99 170.733 905.99 171.009C905.99 171.285 905.766 171.509 905.49 171.509H903.479C903.203 171.509 902.979 171.285 902.979 171.009C902.979 170.733 903.203 170.509 903.479 170.509H905.49ZM909.485 170.509C909.761 170.509 909.985 170.733 909.985 171.009C909.985 171.285 909.761 171.509 909.485 171.509H907.498C907.222 171.509 906.998 171.285 906.998 171.009C906.998 170.733 907.222 170.509 907.498 170.509H909.485ZM913.465 170.509C913.741 170.509 913.965 170.733 913.965 171.009C913.965 171.285 913.741 171.509 913.465 171.509H911.475C911.198 171.509 910.975 171.285 910.975 171.009C910.975 170.733 911.198 170.509 911.475 170.509H913.465ZM917.448 170.509C917.724 170.509 917.948 170.733 917.948 171.009C917.948 171.285 917.724 171.509 917.448 171.509H915.456C915.18 171.509 914.956 171.285 914.956 171.009C914.956 170.733 915.18 170.509 915.456 170.509H917.448ZM921.438 170.509C921.714 170.509 921.938 170.733 921.938 171.009C921.938 171.285 921.714 171.509 921.438 171.509H919.442C919.166 171.509 918.942 171.285 918.942 171.009C918.942 170.733 919.166 170.509 919.442 170.509H921.438ZM925.433 170.509C925.709 170.509 925.933 170.733 925.933 171.009C925.933 171.285 925.709 171.509 925.433 171.509H923.435C923.158 171.509 922.935 171.285 922.935 171.009C922.935 170.733 923.158 170.509 923.435 170.509H925.433ZM929.433 170.509C929.709 170.509 929.933 170.733 929.933 171.009C929.933 171.285 929.709 171.509 929.433 171.509H927.432C927.156 171.509 926.932 171.285 926.932 171.009C926.932 170.733 927.156 170.509 927.432 170.509H929.433ZM933.438 170.509C933.714 170.509 933.938 170.733 933.938 171.009C933.938 171.285 933.714 171.509 933.438 171.509H931.435C931.158 171.509 930.935 171.285 930.935 171.009C930.935 170.733 931.158 170.509 931.435 170.509H933.438ZM937.449 170.509C937.725 170.509 937.949 170.733 937.949 171.009C937.949 171.285 937.725 171.509 937.449 171.509H935.442C935.166 171.509 934.942 171.285 934.942 171.009C934.942 170.733 935.166 170.509 935.442 170.509H937.449ZM941.466 170.509C941.742 170.509 941.966 170.733 941.966 171.009C941.966 171.285 941.742 171.509 941.466 171.509H939.456C939.18 171.509 938.956 171.285 938.956 171.009C938.956 170.733 939.18 170.509 939.456 170.509H941.466ZM945.488 170.509C945.764 170.509 945.988 170.733 945.988 171.009C945.988 171.285 945.764 171.509 945.488 171.509H943.477C943.2 171.509 942.977 171.285 942.977 171.009C942.977 170.733 943.2 170.509 943.477 170.509H945.488ZM949.484 170.509C949.76 170.509 949.984 170.733 949.984 171.009C949.984 171.285 949.76 171.509 949.484 171.509H947.498C947.222 171.509 946.998 171.285 946.998 171.009C946.998 170.733 947.222 170.509 947.498 170.509H949.484ZM953.46 170.509C953.736 170.509 953.96 170.733 953.96 171.009C953.96 171.285 953.736 171.509 953.46 171.509H951.472C951.196 171.509 950.972 171.285 950.972 171.009C950.972 170.733 951.196 170.509 951.472 170.509H953.46ZM957.441 170.509C957.717 170.509 957.941 170.733 957.941 171.009C957.941 171.285 957.717 171.509 957.441 171.509H955.45C955.174 171.509 954.95 171.285 954.95 171.009C954.95 170.733 955.174 170.509 955.45 170.509H957.441ZM961.429 170.509C961.705 170.509 961.929 170.733 961.929 171.009C961.929 171.285 961.705 171.509 961.429 171.509H959.435C959.158 171.509 958.935 171.285 958.935 171.009C958.935 170.733 959.158 170.509 959.435 170.509H961.429ZM965.422 170.509C965.698 170.509 965.922 170.733 965.922 171.009C965.922 171.285 965.698 171.509 965.422 171.509H963.425C963.149 171.509 962.925 171.285 962.925 171.009C962.925 170.733 963.149 170.509 963.425 170.509H965.422ZM969.422 170.509C969.698 170.509 969.922 170.733 969.922 171.009C969.922 171.285 969.698 171.509 969.422 171.509H967.421C967.145 171.509 966.921 171.285 966.921 171.009C966.921 170.733 967.145 170.509 967.421 170.509H969.422ZM973.427 170.509C973.703 170.509 973.927 170.733 973.927 171.009C973.927 171.285 973.703 171.509 973.427 171.509H971.424C971.148 171.509 970.924 171.285 970.924 171.009C970.924 170.733 971.148 170.509 971.424 170.509H973.427ZM977.439 170.509C977.715 170.509 977.939 170.733 977.939 171.009C977.939 171.285 977.715 171.509 977.439 171.509H975.433C975.156 171.509 974.933 171.285 974.933 171.009C974.933 170.733 975.156 170.509 975.433 170.509H977.439ZM981.457 170.509C981.733 170.509 981.957 170.733 981.957 171.009C981.957 171.285 981.733 171.509 981.457 171.509H979.447C979.171 171.509 978.947 171.285 978.947 171.009C978.947 170.733 979.171 170.509 979.447 170.509H981.457ZM985.481 170.509C985.758 170.509 985.981 170.733 985.981 171.009C985.981 171.285 985.758 171.509 985.481 171.509H983.469C983.193 171.509 982.969 171.285 982.969 171.009C982.969 170.733 983.193 170.509 983.469 170.509H985.481ZM989.487 170.509C989.763 170.509 989.987 170.733 989.987 171.009C989.987 171.285 989.763 171.509 989.487 171.509H987.496C987.22 171.509 986.996 171.285 986.996 171.009C986.996 170.733 987.22 170.509 987.496 170.509H989.487ZM993.459 170.509C993.735 170.509 993.959 170.733 993.959 171.009C993.959 171.285 993.735 171.509 993.459 171.509H991.473C991.197 171.509 990.973 171.285 990.973 171.009C990.973 170.733 991.197 170.509 991.473 170.509H993.459ZM997.438 170.509C997.713 170.509 997.938 170.733 997.938 171.009C997.938 171.285 997.713 171.509 997.438 171.509H995.447C995.171 171.509 994.947 171.285 994.947 171.009C994.947 170.733 995.171 170.509 995.447 170.509H997.438ZM1001.42 170.509C1001.7 170.509 1001.92 170.733 1001.92 171.009C1001.92 171.285 1001.7 171.509 1001.42 171.509H999.429C999.153 171.509 998.929 171.285 998.929 171.009C998.929 170.733 999.153 170.509 999.429 170.509H1001.42ZM1005.41 170.509C1005.69 170.509 1005.91 170.733 1005.91 171.009C1005.91 171.285 1005.69 171.509 1005.41 171.509H1003.42C1003.14 171.509 1002.92 171.285 1002.92 171.009C1002.92 170.733 1003.14 170.509 1003.42 170.509H1005.41ZM1009.41 170.509C1009.69 170.509 1009.91 170.733 1009.91 171.009C1009.91 171.285 1009.69 171.509 1009.41 171.509H1007.41C1007.14 171.509 1006.91 171.285 1006.91 171.009C1006.91 170.733 1007.14 170.509 1007.41 170.509H1009.41ZM1013.42 170.509C1013.69 170.509 1013.92 170.733 1013.92 171.009C1013.92 171.285 1013.69 171.509 1013.42 171.509H1011.41C1011.14 171.509 1010.91 171.285 1010.91 171.009C1010.91 170.733 1011.14 170.509 1011.41 170.509H1013.42ZM1017.43 170.509C1017.7 170.509 1017.93 170.733 1017.93 171.009C1017.93 171.285 1017.7 171.509 1017.43 171.509H1015.42C1015.14 171.509 1014.92 171.285 1014.92 171.009C1014.92 170.733 1015.14 170.509 1015.42 170.509H1017.43ZM1021.44 170.509C1021.72 170.509 1021.94 170.733 1021.94 171.009C1021.94 171.285 1021.72 171.509 1021.44 171.509H1019.43C1019.16 171.509 1018.93 171.285 1018.93 171.009C1018.93 170.733 1019.16 170.509 1019.43 170.509H1021.44ZM1025.47 170.509C1025.75 170.509 1025.97 170.733 1025.97 171.009C1025.97 171.285 1025.75 171.509 1025.47 171.509H1023.46C1023.18 171.509 1022.96 171.285 1022.96 171.009C1022.96 170.733 1023.18 170.509 1023.46 170.509H1025.47ZM1029.5 170.509C1029.77 170.509 1030 170.733 1030 171.009C1030 171.285 1029.77 171.509 1029.5 171.509H1027.49C1027.21 171.509 1026.99 171.285 1026.99 171.009C1026.99 170.733 1027.21 170.509 1027.49 170.509H1029.5ZM1033.46 170.509C1033.74 170.509 1033.96 170.733 1033.96 171.009C1033.96 171.285 1033.74 171.509 1033.46 171.509H1031.48C1031.2 171.509 1030.98 171.285 1030.98 171.009C1030.98 170.733 1031.2 170.509 1031.48 170.509H1033.46ZM1037.44 170.509C1037.71 170.509 1037.94 170.733 1037.94 171.009C1037.94 171.285 1037.71 171.509 1037.44 171.509H1035.45C1035.17 171.509 1034.95 171.285 1034.95 171.009C1034.95 170.733 1035.17 170.509 1035.45 170.509H1037.44ZM1041.42 170.509C1041.69 170.509 1041.92 170.733 1041.92 171.009C1041.92 171.285 1041.69 171.509 1041.42 171.509H1039.43C1039.15 171.509 1038.93 171.285 1038.93 171.009C1038.93 170.733 1039.15 170.509 1039.43 170.509H1041.42ZM1045.41 170.509C1045.68 170.509 1045.91 170.733 1045.91 171.009C1045.91 171.285 1045.68 171.509 1045.41 171.509H1043.41C1043.14 171.509 1042.91 171.285 1042.91 171.009C1042.91 170.733 1043.14 170.509 1043.41 170.509H1045.41ZM1049.4 170.509C1049.68 170.509 1049.9 170.733 1049.9 171.009C1049.9 171.285 1049.68 171.509 1049.4 171.509H1047.4C1047.13 171.509 1046.9 171.285 1046.9 171.009C1046.9 170.733 1047.13 170.509 1047.4 170.509H1049.4ZM1053.4 170.509C1053.68 170.509 1053.9 170.733 1053.9 171.009C1053.9 171.285 1053.68 171.509 1053.4 171.509H1051.4C1051.12 171.509 1050.9 171.285 1050.9 171.009C1050.9 170.733 1051.12 170.509 1051.4 170.509H1053.4ZM1057.41 170.509C1057.69 170.509 1057.91 170.733 1057.91 171.009C1057.91 171.285 1057.69 171.509 1057.41 171.509H1055.41C1055.13 171.509 1054.91 171.285 1054.91 171.009C1054.91 170.733 1055.13 170.509 1055.41 170.509H1057.41ZM1061.43 170.509C1061.7 170.509 1061.93 170.733 1061.93 171.009C1061.93 171.285 1061.7 171.509 1061.43 171.509H1059.42C1059.14 171.509 1058.92 171.285 1058.92 171.009C1058.92 170.733 1059.14 170.509 1059.42 170.509H1061.43ZM1065.45 170.509C1065.73 170.509 1065.95 170.733 1065.95 171.009C1065.95 171.285 1065.73 171.509 1065.45 171.509H1063.44C1063.16 171.509 1062.94 171.285 1062.94 171.009C1062.94 170.733 1063.16 170.509 1063.44 170.509H1065.45ZM1069.48 170.509C1069.76 170.509 1069.98 170.733 1069.98 171.009C1069.98 171.285 1069.76 171.509 1069.48 171.509H1067.47C1067.19 171.509 1066.97 171.285 1066.97 171.009C1066.97 170.733 1067.19 170.509 1067.47 170.509H1069.48ZM1073.48 170.509C1073.76 170.509 1073.98 170.733 1073.98 171.009C1073.98 171.285 1073.76 171.509 1073.48 171.509H1071.5C1071.22 171.509 1071 171.285 1071 171.009C1071 170.733 1071.22 170.509 1071.5 170.509H1073.48ZM1077.45 170.509C1077.72 170.509 1077.95 170.733 1077.95 171.009C1077.95 171.285 1077.72 171.509 1077.45 171.509H1075.46C1075.19 171.509 1074.96 171.285 1074.96 171.009C1074.96 170.733 1075.19 170.509 1075.46 170.509H1077.45ZM1081.42 170.509C1081.7 170.509 1081.92 170.733 1081.92 171.009C1081.92 171.285 1081.7 171.509 1081.42 171.509H1079.43C1079.16 171.509 1078.93 171.285 1078.93 171.009C1078.93 170.733 1079.16 170.509 1079.43 170.509H1081.42ZM1085.4 170.509C1085.68 170.509 1085.9 170.733 1085.9 171.009C1085.9 171.285 1085.68 171.509 1085.4 171.509H1083.41C1083.14 171.509 1082.91 171.285 1082.91 171.009C1082.91 170.733 1083.14 170.509 1083.41 170.509H1085.4ZM1089.39 170.509C1089.67 170.509 1089.89 170.733 1089.89 171.009C1089.89 171.285 1089.67 171.509 1089.39 171.509H1087.4C1087.12 171.509 1086.9 171.285 1086.9 171.009C1086.9 170.733 1087.12 170.509 1087.4 170.509H1089.39ZM1093.39 170.509C1093.67 170.509 1093.89 170.733 1093.89 171.009C1093.89 171.285 1093.67 171.509 1093.39 171.509H1091.39C1091.11 171.509 1090.89 171.285 1090.89 171.009C1090.89 170.733 1091.11 170.509 1091.39 170.509H1093.39ZM1097.39 170.509C1097.67 170.509 1097.89 170.733 1097.89 171.009C1097.89 171.285 1097.67 171.509 1097.39 171.509H1095.39C1095.11 171.509 1094.89 171.285 1094.89 171.009C1094.89 170.733 1095.11 170.509 1095.39 170.509H1097.39ZM1101.41 170.509C1101.68 170.509 1101.91 170.733 1101.91 171.009C1101.91 171.285 1101.68 171.509 1101.41 171.509H1099.4C1099.12 171.509 1098.9 171.285 1098.9 171.009C1098.9 170.733 1099.12 170.509 1099.4 170.509H1101.41ZM1105.43 170.509C1105.7 170.509 1105.93 170.733 1105.93 171.009C1105.93 171.285 1105.7 171.509 1105.43 171.509H1103.42C1103.14 171.509 1102.92 171.285 1102.92 171.009C1102.92 170.733 1103.14 170.509 1103.42 170.509H1105.43ZM1109.46 170.509C1109.73 170.509 1109.96 170.733 1109.96 171.009C1109.96 171.285 1109.73 171.509 1109.46 171.509H1107.44C1107.16 171.509 1106.94 171.285 1106.94 171.009C1106.94 170.733 1107.16 170.509 1107.44 170.509H1109.46ZM1113.49 170.509C1113.77 170.509 1113.99 170.733 1113.99 171.009C1113.99 171.285 1113.77 171.509 1113.49 171.509H1111.47C1111.2 171.509 1110.97 171.285 1110.97 171.009C1110.97 170.733 1111.2 170.509 1111.47 170.509H1113.49ZM1117.47 170.509C1117.74 170.509 1117.97 170.733 1117.97 171.009C1117.97 171.285 1117.74 171.509 1117.47 171.509H1115.49C1115.21 171.509 1114.99 171.285 1114.99 171.009C1114.99 170.733 1115.21 170.509 1115.49 170.509H1117.47ZM1121.43 170.509C1121.71 170.509 1121.93 170.733 1121.93 171.009C1121.93 171.285 1121.71 171.509 1121.43 171.509H1119.45C1119.17 171.509 1118.95 171.285 1118.95 171.009C1118.95 170.733 1119.17 170.509 1119.45 170.509H1121.43ZM1125.41 170.509C1125.68 170.509 1125.91 170.733 1125.91 171.009C1125.91 171.285 1125.68 171.509 1125.41 171.509H1123.42C1123.14 171.509 1122.92 171.285 1122.92 171.009C1122.92 170.733 1123.14 170.509 1123.42 170.509H1125.41ZM1129.39 170.509C1129.67 170.509 1129.89 170.733 1129.89 171.009C1129.89 171.285 1129.67 171.509 1129.39 171.509H1127.4C1127.12 171.509 1126.9 171.285 1126.9 171.009C1126.9 170.733 1127.12 170.509 1127.4 170.509H1129.39ZM1133.38 170.509C1133.66 170.509 1133.88 170.733 1133.88 171.009C1133.88 171.285 1133.66 171.509 1133.38 171.509H1131.38C1131.11 171.509 1130.88 171.285 1130.88 171.009C1130.88 170.733 1131.11 170.509 1131.38 170.509H1133.38ZM1137.38 170.509C1137.66 170.509 1137.88 170.733 1137.88 171.009C1137.88 171.285 1137.66 171.509 1137.38 171.509H1135.38C1135.1 171.509 1134.88 171.285 1134.88 171.009C1134.88 170.733 1135.1 170.509 1135.38 170.509H1137.38ZM1141.39 170.509C1141.66 170.509 1141.89 170.733 1141.89 171.009C1141.89 171.285 1141.66 171.509 1141.39 171.509H1139.38C1139.11 171.509 1138.88 171.285 1138.88 171.009C1138.88 170.733 1139.11 170.509 1139.38 170.509H1141.39ZM1145.4 170.509C1145.68 170.509 1145.9 170.733 1145.9 171.009C1145.9 171.285 1145.68 171.509 1145.4 171.509H1143.39C1143.12 171.509 1142.89 171.285 1142.89 171.009C1142.89 170.733 1143.12 170.509 1143.39 170.509H1145.4ZM1149.42 170.509C1149.7 170.509 1149.92 170.733 1149.92 171.009C1149.92 171.285 1149.7 171.509 1149.42 171.509H1147.41C1147.13 171.509 1146.91 171.285 1146.91 171.009C1146.91 170.733 1147.13 170.509 1147.41 170.509H1149.42ZM1153.45 170.509C1153.73 170.509 1153.95 170.733 1153.95 171.009C1153.95 171.285 1153.73 171.509 1153.45 171.509H1151.44C1151.16 171.509 1150.94 171.285 1150.94 171.009C1150.94 170.733 1151.16 170.509 1151.44 170.509H1153.45ZM1157.49 170.509C1157.77 170.509 1157.99 170.733 1157.99 171.009C1157.99 171.285 1157.77 171.509 1157.49 171.509H1155.47C1155.2 171.509 1154.97 171.285 1154.97 171.009C1154.97 170.733 1155.2 170.509 1155.47 170.509H1157.49ZM1161.46 170.509C1161.74 170.509 1161.96 170.733 1161.96 171.009C1161.96 171.285 1161.74 171.509 1161.46 171.509H1159.48C1159.21 171.509 1158.98 171.285 1158.98 171.009C1158.98 170.733 1159.21 170.509 1159.48 170.509H1161.46ZM1165.43 170.509C1165.7 170.509 1165.93 170.733 1165.93 171.009C1165.93 171.285 1165.7 171.509 1165.43 171.509H1163.45C1163.17 171.509 1162.95 171.285 1162.95 171.009C1162.95 170.733 1163.17 170.509 1163.45 170.509H1165.43ZM1169.4 170.509C1169.68 170.509 1169.9 170.733 1169.9 171.009C1169.9 171.285 1169.68 171.509 1169.4 171.509H1167.41C1167.14 171.509 1166.91 171.285 1166.91 171.009C1166.91 170.733 1167.14 170.509 1167.41 170.509H1169.4ZM1173.38 170.509C1173.66 170.509 1173.88 170.733 1173.88 171.009C1173.88 171.285 1173.66 171.509 1173.38 171.509H1171.39C1171.11 171.509 1170.89 171.285 1170.89 171.009C1170.89 170.733 1171.11 170.509 1171.39 170.509H1173.38ZM1177.37 170.509C1177.65 170.509 1177.87 170.733 1177.87 171.009C1177.87 171.285 1177.65 171.509 1177.37 171.509H1175.38C1175.1 171.509 1174.88 171.285 1174.88 171.009C1174.88 170.733 1175.1 170.509 1175.38 170.509H1177.37ZM1181.37 170.509C1181.65 170.509 1181.87 170.733 1181.87 171.009C1181.87 171.285 1181.65 171.509 1181.37 171.509H1179.37C1179.09 171.509 1178.87 171.285 1178.87 171.009C1178.87 170.733 1179.09 170.509 1179.37 170.509H1181.37ZM1185.37 170.509C1185.65 170.509 1185.87 170.733 1185.87 171.009C1185.87 171.285 1185.65 171.509 1185.37 171.509H1183.37C1183.09 171.509 1182.87 171.285 1182.87 171.009C1182.87 170.733 1183.09 170.509 1183.37 170.509H1185.37ZM1189.39 170.509C1189.66 170.509 1189.89 170.733 1189.89 171.009C1189.89 171.285 1189.66 171.509 1189.39 171.509H1187.38C1187.1 171.509 1186.88 171.285 1186.88 171.009C1186.88 170.733 1187.1 170.509 1187.38 170.509H1189.39ZM1193.41 170.509C1193.69 170.509 1193.91 170.733 1193.91 171.009C1193.91 171.285 1193.69 171.509 1193.41 171.509H1191.4C1191.12 171.509 1190.9 171.285 1190.9 171.009C1190.9 170.733 1191.12 170.509 1191.4 170.509H1193.41ZM1197.44 170.509C1197.72 170.509 1197.94 170.733 1197.94 171.009C1197.94 171.285 1197.72 171.509 1197.44 171.509H1195.43C1195.15 171.509 1194.93 171.285 1194.93 171.009C1194.93 170.733 1195.15 170.509 1195.43 170.509H1197.44ZM1201.48 170.509C1201.76 170.509 1201.98 170.733 1201.98 171.009C1201.98 171.285 1201.76 171.509 1201.48 171.509H1199.46C1199.19 171.509 1198.96 171.285 1198.96 171.009C1198.96 170.733 1199.19 170.509 1199.46 170.509H1201.48ZM1205.47 170.509C1205.75 170.509 1205.97 170.733 1205.97 171.009C1205.97 171.285 1205.75 171.509 1205.47 171.509H1203.49C1203.22 171.509 1202.99 171.285 1202.99 171.009C1202.99 170.733 1203.22 170.509 1203.49 170.509H1205.47ZM1209.43 170.509C1209.71 170.509 1209.93 170.733 1209.93 171.009C1209.93 171.285 1209.71 171.509 1209.43 171.509H1207.45C1207.17 171.509 1206.95 171.285 1206.95 171.009C1206.95 170.733 1207.17 170.509 1207.45 170.509H1209.43ZM1213.4 170.509C1213.68 170.509 1213.9 170.733 1213.9 171.009C1213.9 171.285 1213.68 171.509 1213.4 171.509H1211.42C1211.14 171.509 1210.92 171.285 1210.92 171.009C1210.92 170.733 1211.14 170.509 1211.42 170.509H1213.4ZM1217.38 170.509C1217.65 170.509 1217.88 170.733 1217.88 171.009C1217.88 171.285 1217.65 171.509 1217.38 171.509H1215.39C1215.11 171.509 1214.89 171.285 1214.89 171.009C1214.89 170.733 1215.11 170.509 1215.39 170.509H1217.38ZM1221.36 170.509C1221.64 170.509 1221.86 170.733 1221.86 171.009C1221.86 171.285 1221.64 171.509 1221.36 171.509H1219.37C1219.09 171.509 1218.87 171.285 1218.87 171.009C1218.87 170.733 1219.09 170.509 1219.37 170.509H1221.36ZM1225.36 170.509C1225.63 170.509 1225.86 170.733 1225.86 171.009C1225.86 171.285 1225.63 171.509 1225.36 171.509H1223.36C1223.08 171.509 1222.86 171.285 1222.86 171.009C1222.86 170.733 1223.08 170.509 1223.36 170.509H1225.36ZM1229.36 170.509C1229.64 170.509 1229.86 170.733 1229.86 171.009C1229.86 171.285 1229.64 171.509 1229.36 171.509H1227.36C1227.08 171.509 1226.86 171.285 1226.86 171.009C1226.86 170.733 1227.08 170.509 1227.36 170.509H1229.36ZM1233.37 170.509C1233.65 170.509 1233.87 170.733 1233.87 171.009C1233.87 171.285 1233.65 171.509 1233.37 171.509H1231.37C1231.09 171.509 1230.87 171.285 1230.87 171.009C1230.87 170.733 1231.09 170.509 1231.37 170.509H1233.37ZM1237.39 170.509C1237.67 170.509 1237.89 170.733 1237.89 171.009C1237.89 171.285 1237.67 171.509 1237.39 171.509H1235.38C1235.11 171.509 1234.88 171.285 1234.88 171.009C1234.88 170.733 1235.11 170.509 1235.38 170.509H1237.39ZM1241.42 170.509C1241.7 170.509 1241.92 170.733 1241.92 171.009C1241.92 171.285 1241.7 171.509 1241.42 171.509H1239.41C1239.13 171.509 1238.91 171.285 1238.91 171.009C1238.91 170.733 1239.13 170.509 1239.41 170.509H1241.42ZM1245.46 170.509C1245.74 170.509 1245.96 170.733 1245.96 171.009C1245.96 171.285 1245.74 171.509 1245.46 171.509H1243.44C1243.16 171.509 1242.94 171.285 1242.94 171.009C1242.94 170.733 1243.16 170.509 1243.44 170.509H1245.46ZM1249.49 170.509C1249.77 170.509 1249.99 170.733 1249.99 171.009C1249.99 171.285 1249.77 171.509 1249.49 171.509H1247.48C1247.21 171.509 1246.98 171.285 1246.98 171.009C1246.98 170.733 1247.21 170.509 1247.48 170.509H1249.49ZM1253.45 170.509C1253.72 170.509 1253.95 170.733 1253.95 171.009C1253.95 171.285 1253.72 171.509 1253.45 171.509H1251.47C1251.19 171.509 1250.97 171.285 1250.97 171.009C1250.97 170.733 1251.19 170.509 1251.47 170.509H1253.45ZM1257.41 170.509C1257.69 170.509 1257.91 170.733 1257.91 171.009C1257.91 171.285 1257.69 171.509 1257.41 171.509H1255.43C1255.15 171.509 1254.93 171.285 1254.93 171.009C1254.93 170.733 1255.15 170.509 1255.43 170.509H1257.41ZM1261.38 170.509C1261.66 170.509 1261.88 170.733 1261.88 171.009C1261.88 171.285 1261.66 171.509 1261.38 171.509H1259.39C1259.12 171.509 1258.89 171.285 1258.89 171.009C1258.89 170.733 1259.12 170.509 1259.39 170.509H1261.38ZM1265.36 170.509C1265.64 170.509 1265.86 170.733 1265.86 171.009C1265.86 171.285 1265.64 171.509 1265.36 171.509H1263.37C1263.09 171.509 1262.87 171.285 1262.87 171.009C1262.87 170.733 1263.09 170.509 1263.37 170.509H1265.36ZM1269.35 170.509C1269.63 170.509 1269.85 170.733 1269.85 171.009C1269.85 171.285 1269.63 171.509 1269.35 171.509H1267.35C1267.08 171.509 1266.85 171.285 1266.85 171.009C1266.85 170.733 1267.08 170.509 1267.35 170.509H1269.35ZM1273.35 170.509C1273.62 170.509 1273.85 170.733 1273.85 171.009C1273.85 171.285 1273.62 171.509 1273.35 171.509H1271.35C1271.07 171.509 1270.85 171.285 1270.85 171.009C1270.85 170.733 1271.07 170.509 1271.35 170.509H1273.35ZM1277.35 170.509C1277.63 170.509 1277.85 170.733 1277.85 171.009C1277.85 171.285 1277.63 171.509 1277.35 171.509H1275.35C1275.07 171.509 1274.85 171.285 1274.85 171.009C1274.85 170.733 1275.07 170.509 1275.35 170.509H1277.35ZM1281.37 170.509C1281.65 170.509 1281.87 170.733 1281.87 171.009C1281.87 171.285 1281.65 171.509 1281.37 171.509H1279.36C1279.08 171.509 1278.86 171.285 1278.86 171.009C1278.86 170.733 1279.08 170.509 1279.36 170.509H1281.37ZM1285.39 170.509C1285.67 170.509 1285.89 170.733 1285.89 171.009C1285.89 171.285 1285.67 171.509 1285.39 171.509H1283.38C1283.1 171.509 1282.88 171.285 1282.88 171.009C1282.88 170.733 1283.1 170.509 1283.38 170.509H1285.39ZM1289.43 170.509C1289.7 170.509 1289.93 170.733 1289.93 171.009C1289.93 171.285 1289.7 171.509 1289.43 171.509H1287.41C1287.13 171.509 1286.91 171.285 1286.91 171.009C1286.91 170.733 1287.13 170.509 1287.41 170.509H1289.43ZM1293.47 170.509C1293.74 170.509 1293.97 170.733 1293.97 171.009C1293.97 171.285 1293.74 171.509 1293.47 171.509H1291.45C1291.17 171.509 1290.95 171.285 1290.95 171.009C1290.95 170.733 1291.17 170.509 1291.45 170.509H1293.47ZM1297.48 170.509C1297.76 170.509 1297.98 170.733 1297.98 171.009C1297.98 171.285 1297.76 171.509 1297.48 171.509H1295.49C1295.22 171.509 1294.99 171.285 1294.99 171.009C1294.99 170.733 1295.22 170.509 1295.49 170.509H1297.48ZM1301.44 170.509C1301.71 170.509 1301.94 170.733 1301.94 171.009C1301.94 171.285 1301.71 171.509 1301.44 171.509H1299.46C1299.18 171.509 1298.96 171.285 1298.96 171.009C1298.96 170.733 1299.18 170.509 1299.46 170.509H1301.44ZM1305.4 170.509C1305.67 170.509 1305.9 170.733 1305.9 171.009C1305.9 171.285 1305.67 171.509 1305.4 171.509H1303.42C1303.14 171.509 1302.92 171.285 1302.92 171.009C1302.92 170.733 1303.14 170.509 1303.42 170.509H1305.4ZM1309.37 170.509C1309.65 170.509 1309.87 170.733 1309.87 171.009C1309.87 171.285 1309.65 171.509 1309.37 171.509H1307.38C1307.11 171.509 1306.88 171.285 1306.88 171.009C1306.88 170.733 1307.11 170.509 1307.38 170.509H1309.37ZM1313.35 170.509C1313.63 170.509 1313.85 170.733 1313.85 171.009C1313.85 171.285 1313.63 171.509 1313.35 171.509H1311.36C1311.08 171.509 1310.86 171.285 1310.86 171.009C1310.86 170.733 1311.08 170.509 1311.36 170.509H1313.35ZM1317.34 170.509C1317.61 170.509 1317.84 170.733 1317.84 171.009C1317.84 171.285 1317.61 171.509 1317.34 171.509H1315.34C1315.07 171.509 1314.84 171.285 1314.84 171.009C1314.84 170.733 1315.07 170.509 1315.34 170.509H1317.34ZM1321.34 170.509C1321.61 170.509 1321.84 170.733 1321.84 171.009C1321.84 171.285 1321.61 171.509 1321.34 171.509H1319.34C1319.06 171.509 1318.84 171.285 1318.84 171.009C1318.84 170.733 1319.06 170.509 1319.34 170.509H1321.34ZM1325.34 170.509C1325.62 170.509 1325.84 170.733 1325.84 171.009C1325.84 171.285 1325.62 171.509 1325.34 171.509H1323.34C1323.06 171.509 1322.84 171.285 1322.84 171.009C1322.84 170.733 1323.06 170.509 1323.34 170.509H1325.34ZM1329.36 170.509C1329.64 170.509 1329.86 170.733 1329.86 171.009C1329.86 171.285 1329.64 171.509 1329.36 171.509H1327.35C1327.07 171.509 1326.85 171.285 1326.85 171.009C1326.85 170.733 1327.07 170.509 1327.35 170.509H1329.36ZM1333.38 170.509C1333.66 170.509 1333.88 170.733 1333.88 171.009C1333.88 171.285 1333.66 171.509 1333.38 171.509H1331.37C1331.09 171.509 1330.87 171.285 1330.87 171.009C1330.87 170.733 1331.09 170.509 1331.37 170.509H1333.38ZM1337.42 170.509C1337.69 170.509 1337.92 170.733 1337.92 171.009C1337.92 171.285 1337.69 171.509 1337.42 171.509H1335.4C1335.12 171.509 1334.9 171.285 1334.9 171.009C1334.9 170.733 1335.12 170.509 1335.4 170.509H1337.42ZM1341.46 170.509C1341.74 170.509 1341.96 170.733 1341.96 171.009C1341.96 171.285 1341.74 171.509 1341.46 171.509H1339.44C1339.16 171.509 1338.94 171.285 1338.94 171.009C1338.94 170.733 1339.16 170.509 1339.44 170.509H1341.46ZM664.5 163.625H663.5V161.648H664.5V163.625ZM664.5 159.671H663.5V157.693H664.5V159.671ZM664.5 155.716H663.5V153.739H664.5V155.716ZM664.5 151.762H663.5V149.784H664.5V151.762ZM664.5 147.808H663.5V145.83H664.5V147.808ZM664.5 143.853H663.5V141.875H664.5V143.853ZM664.5 139.898H663.5V137.921H664.5V139.898ZM664.5 135.943H663.5V133.966H664.5V135.943ZM664.5 131.989H663.5V130.012H664.5V131.989ZM664.5 128.034H663.5V126.057H664.5V128.034ZM664.5 124.08H663.5V122.103H664.5V124.08ZM664.5 120.125H663.5V118.148H664.5V120.125ZM664.5 116.171H663.5V114.193H664.5V116.171ZM664.5 112.216H663.5V110.239H664.5V112.216ZM664.5 108.262H663.5V106.284H664.5V108.262ZM664.5 104.307H663.5V102.33H664.5V104.307ZM664.5 100.353H663.5V98.375H664.5V100.353ZM664.5 96.3975H663.5V94.4209H664.5V96.3975ZM664.5 92.4434H663.5V90.4658H664.5V92.4434ZM664.5 88.4893H663.5V86.5117H664.5V88.4893ZM664.5 84.5342H663.5V82.5566H664.5V84.5342ZM664.5 80.5801H663.5V78.6025H664.5V80.5801ZM664.5 76.625H663.5V74.6475H664.5V76.625ZM664.5 72.6709H663.5V70.6934H664.5V72.6709ZM664.5 68.7158H663.5V66.7383H664.5V68.7158ZM664.5 64.7617H663.5V62.7842H664.5V64.7617ZM664.5 60.8066H663.5V58.8301H664.5V60.8066ZM664.5 56.8525H663.5V54.875H664.5V56.8525ZM664.5 52.8975H663.5V50.9209H664.5V52.8975ZM664.5 48.9434H663.5V46.9658H664.5V48.9434ZM664.5 44.9883H663.5V43.0117H664.5V44.9883ZM664.5 41.0342H663.5V39.0566H664.5V41.0342ZM664.5 37.0791H663.5V35.1025H664.5V37.0791ZM664.5 33.125H663.5V31.1475H664.5V33.125ZM664.5 29.1709H663.5V27.1934H664.5V29.1709ZM664.5 25.2158H663.5V23.2383H664.5V25.2158ZM664.5 21.2617H663.5V19.2842H664.5V21.2617ZM664.5 17.3066H663.5V15.3291H664.5V17.3066ZM664.5 13.3525H663.5V11.375H664.5V13.3525ZM664.5 9.39746H663.5V7.41992H664.5V9.39746ZM664.5 5.44336H663.5V3.46582H664.5V5.44336ZM664 0C664.276 2.10891e-06 664.5 0.223901 664.5 0.5V1.48828H663.5V0.5C663.5 0.2239 663.724 2.28037e-08 664 0Z" fill="black"/>
</svg>
